<mxfile host="65bd71144e">
    <diagram id="oBRkkMxf2rn4HvT24NEF" name="Page-1">
        <mxGraphModel dx="4429" dy="3130" grid="1" gridSize="10" guides="1" tooltips="1" connect="1" arrows="1" fold="1" page="1" pageScale="1" pageWidth="1169" pageHeight="827" math="0" shadow="0">
            <root>
                <mxCell id="0"/>
                <mxCell id="1" parent="0"/>
                <mxCell id="2" value="DisasterVictim" style="swimlane;fontStyle=1;align=center;verticalAlign=top;childLayout=stackLayout;horizontal=1;startSize=26;horizontalStack=0;resizeParent=1;resizeParentMax=0;resizeLast=0;collapsible=1;marginBottom=0;whiteSpace=wrap;html=1;movable=1;resizable=1;rotatable=1;deletable=1;editable=1;locked=0;connectable=1;" vertex="1" parent="1">
                    <mxGeometry x="370" y="270" width="310" height="780" as="geometry"/>
                </mxCell>
                <mxCell id="3" value="&lt;p style=&quot;text-align: justify; margin: 0cm 0cm 8pt; color: rgb(0, 0, 0); line-height: 40%;&quot; class=&quot;MsoNormal&quot;&gt;&lt;font face=&quot;Helvetica&quot; style=&quot;font-size: 9px; line-height: 40%;&quot;&gt;- String firstName&lt;/font&gt;&lt;/p&gt;&lt;p style=&quot;text-align: justify; margin: 0cm 0cm 8pt; color: rgb(0, 0, 0); line-height: 40%;&quot; class=&quot;MsoNormal&quot;&gt;&lt;span style=&quot;font-size: 9px; background-color: transparent; line-height: 40%;&quot;&gt;- String lastName&lt;/span&gt;&lt;/p&gt;&lt;p style=&quot;text-align: justify; margin: 0cm 0cm 8pt; color: rgb(0, 0, 0); line-height: 40%;&quot; class=&quot;MsoNormal&quot;&gt;&lt;font face=&quot;Helvetica&quot; style=&quot;font-size: 9px; line-height: 40%;&quot;&gt;- String dateOfBirth&lt;/font&gt;&lt;/p&gt;&lt;p style=&quot;text-align: justify; margin: 0cm 0cm 8pt; color: rgb(0, 0, 0); line-height: 40%;&quot; class=&quot;MsoNormal&quot;&gt;&lt;font face=&quot;Helvetica&quot; style=&quot;font-size: 9px; line-height: 40%;&quot;&gt;- int ASSIGNED_SOCIAL_ID&lt;/font&gt;&lt;/p&gt;&lt;p style=&quot;text-align: justify; margin: 0cm 0cm 8pt; color: rgb(0, 0, 0); line-height: 40%;&quot; class=&quot;MsoNormal&quot;&gt;&lt;font face=&quot;Helvetica&quot; style=&quot;font-size: 9px; line-height: 40%;&quot;&gt;- FamilyGroup familyGroup&lt;/font&gt;&lt;/p&gt;&lt;p style=&quot;text-align: justify; margin: 0cm 0cm 8pt; color: rgb(0, 0, 0); line-height: 40%;&quot; class=&quot;MsoNormal&quot;&gt;&lt;font face=&quot;Helvetica&quot; style=&quot;font-size: 9px; line-height: 40%;&quot;&gt;- MedicalRecord[] medicalRecords&lt;/font&gt;&lt;/p&gt;&lt;p style=&quot;text-align: justify; margin: 0cm 0cm 8pt; color: rgb(0, 0, 0); line-height: 40%;&quot; class=&quot;MsoNormal&quot;&gt;&lt;font face=&quot;Helvetica&quot; style=&quot;font-size: 9px; line-height: 40%;&quot;&gt;- Supply[] supplies&lt;/font&gt;&lt;/p&gt;&lt;p style=&quot;text-align: justify; margin: 0cm 0cm 8pt; color: rgb(0, 0, 0); line-height: 40%;&quot; class=&quot;MsoNormal&quot;&gt;&lt;font face=&quot;Helvetica&quot; style=&quot;font-size: 9px; line-height: 40%;&quot;&gt;- String ENTRY_DATE&lt;/font&gt;&lt;/p&gt;&lt;p style=&quot;text-align: justify; margin: 0cm 0cm 8pt; color: rgb(0, 0, 0); line-height: 40%;&quot; class=&quot;MsoNormal&quot;&gt;&lt;font face=&quot;Helvetica&quot; style=&quot;font-size: 9px; line-height: 40%;&quot;&gt;- String gender&lt;/font&gt;&lt;/p&gt;&lt;p style=&quot;text-align: justify; margin: 0cm 0cm 8pt; color: rgb(0, 0, 0); line-height: 40%;&quot; class=&quot;MsoNormal&quot;&gt;&lt;font face=&quot;Helvetica&quot; style=&quot;font-size: 9px; line-height: 40%;&quot;&gt;- String comments&lt;/font&gt;&lt;/p&gt;&lt;p style=&quot;text-align: justify; margin: 0cm 0cm 8pt; color: rgb(0, 0, 0); line-height: 40%;&quot; class=&quot;MsoNormal&quot;&gt;&lt;font face=&quot;Helvetica&quot; style=&quot;font-size: 9px; line-height: 40%;&quot;&gt;- Inquiry[] inquiries&lt;/font&gt;&lt;/p&gt;&lt;p style=&quot;text-align: justify; margin: 0cm 0cm 0px; color: rgb(0, 0, 0); line-height: 40%;&quot; class=&quot;MsoNormal&quot;&gt;&lt;font face=&quot;Helvetica&quot; style=&quot;font-size: 9px; line-height: 40%;&quot;&gt;&lt;u&gt;- int counter&lt;/u&gt;&lt;/font&gt;&lt;/p&gt;" style="text;strokeColor=none;fillColor=none;align=left;verticalAlign=top;spacingLeft=2;spacingRight=2;overflow=hidden;rotatable=0;points=[[0,0.5],[1,0.5]];portConstraint=eastwest;html=1;spacing=2;whiteSpace=wrap;horizontal=1;spacingTop=0;" vertex="1" parent="2">
                    <mxGeometry y="26" width="310" height="184" as="geometry"/>
                </mxCell>
                <mxCell id="4" value="" style="line;strokeWidth=1;fillColor=none;align=left;verticalAlign=middle;spacingTop=-1;spacingLeft=3;spacingRight=3;rotatable=0;labelPosition=right;points=[];portConstraint=eastwest;strokeColor=inherit;" vertex="1" parent="2">
                    <mxGeometry y="210" width="310" height="8" as="geometry"/>
                </mxCell>
                <mxCell id="5" value="&lt;p style=&quot;margin: 0cm 0cm 0px; line-height: 18.4px; font-family: Aptos, sans-serif; color: rgb(0, 0, 0);&quot; class=&quot;MsoNormal&quot;&gt;&lt;font style=&quot;font-size: 9px;&quot;&gt;&lt;span style=&quot;&quot; class=&quot;markedcontent&quot;&gt;&lt;span style=&quot;line-height: 9.96667px; font-family: Arial, sans-serif; color: black; background: white;&quot;&gt;+DisasterV&lt;/span&gt;&lt;span style=&quot;transform-origin: 0% 0%; transform: scaleX(1.00017); cursor: text;&quot; role=&quot;presentation&quot;&gt;ictim(String firstName, String ENTR&lt;/span&gt;&lt;span style=&quot;transform-origin: 0% 0%; transform: scaleX(1.00021); cursor: text;&quot; role=&quot;presentation&quot;&gt;Y_DA&lt;/span&gt;&lt;span style=&quot;transform-origin: 0% 0%; transform: scaleX(1.00015); cursor: text;&quot; role=&quot;presentation&quot;&gt;TE)&lt;/span&gt;&lt;/span&gt;&lt;span style=&quot;font-family: Arial, sans-serif; color: black; background: white;&quot;&gt;&lt;br style=&quot;transform-origin: 0% 0%; cursor: text;&quot; role=&quot;presentation&quot;&gt;&lt;span style=&quot;transform-origin: 0% 0%; cursor: text;&quot; id=&quot;page1R_mcid13&quot;&gt;&lt;/span&gt;&lt;span class=&quot;markedcontent&quot;&gt;&lt;span style=&quot;transform-origin: 0% 0%; transform: scaleX(1.0002); cursor: text;&quot; role=&quot;presentation&quot;&gt;&lt;span style=&quot;line-height: 9.96667px; color: black; background-image: initial; background-position: initial; background-size: initial; background-repeat: initial; background-attachment: initial; background-origin: initial; background-clip: initial;&quot;&gt;+DisasterV&lt;/span&gt;&lt;span style=&quot;transform-origin: 0% 0%; transform: scaleX(1.00017); cursor: text;&quot; role=&quot;presentation&quot;&gt;ictim(String firstName, String ENTR&lt;/span&gt;&lt;span style=&quot;transform-origin: 0% 0%; transform: scaleX(1.00021); cursor: text;&quot; role=&quot;presentation&quot;&gt;Y_DA&lt;/span&gt;&lt;span style=&quot;transform-origin: 0% 0%; transform: scaleX(1.00018); cursor: text;&quot; role=&quot;presentation&quot;&gt;TE, String dateOfBirth)&lt;/span&gt;&lt;/span&gt;&lt;/span&gt;&lt;/span&gt;&lt;span style=&quot;font-family: Arial, sans-serif; color: black; background: white;&quot;&gt;&lt;br style=&quot;transform-origin: 0% 0%; cursor: text;&quot; role=&quot;presentation&quot;&gt;&lt;span style=&quot;transform-origin: 0% 0%; cursor: text;&quot; id=&quot;page1R_mcid14&quot;&gt;&lt;/span&gt;&lt;span class=&quot;markedcontent&quot;&gt;&lt;span style=&quot;transform-origin: 0% 0%; transform: scaleX(1.0002); cursor: text;&quot; role=&quot;presentation&quot;&gt;&lt;span style=&quot;line-height: 9.96667px; color: black; background-image: initial; background-position: initial; background-size: initial; background-repeat: initial; background-attachment: initial; background-origin: initial; background-clip: initial;&quot;&gt;+String getFirstName()&lt;/span&gt;&lt;/span&gt;&lt;/span&gt;&lt;/span&gt;&lt;span style=&quot;font-family: Arial, sans-serif; color: black; background: white;&quot;&gt;&lt;br style=&quot;transform-origin: 0% 0%; cursor: text;&quot; role=&quot;presentation&quot;&gt;&lt;span style=&quot;transform-origin: 0% 0%; cursor: text;&quot; id=&quot;page1R_mcid15&quot;&gt;&lt;/span&gt;&lt;span class=&quot;markedcontent&quot;&gt;&lt;span style=&quot;transform-origin: 0% 0%; transform: scaleX(1.0002); cursor: text;&quot; role=&quot;presentation&quot;&gt;&lt;span style=&quot;line-height: 9.96667px; color: black; background-image: initial; background-position: initial; background-size: initial; background-repeat: initial; background-attachment: initial; background-origin: initial; background-clip: initial;&quot;&gt;+void setFirstName(String firstName)&lt;/span&gt;&lt;/span&gt;&lt;/span&gt;&lt;/span&gt;&lt;span style=&quot;font-family: Arial, sans-serif; color: black; background: white;&quot;&gt;&lt;br style=&quot;transform-origin: 0% 0%; cursor: text;&quot; role=&quot;presentation&quot;&gt;&lt;span style=&quot;transform-origin: 0% 0%; cursor: text;&quot; id=&quot;page1R_mcid16&quot;&gt;&lt;/span&gt;&lt;span class=&quot;markedcontent&quot;&gt;&lt;span style=&quot;transform-origin: 0% 0%; transform: scaleX(1.00021); cursor: text;&quot; role=&quot;presentation&quot;&gt;&lt;span style=&quot;line-height: 9.96667px; color: black; background-image: initial; background-position: initial; background-size: initial; background-repeat: initial; background-attachment: initial; background-origin: initial; background-clip: initial;&quot;&gt;+String getLastName()&lt;/span&gt;&lt;/span&gt;&lt;/span&gt;&lt;/span&gt;&lt;span style=&quot;font-family: Arial, sans-serif; color: black; background: white;&quot;&gt;&lt;br style=&quot;transform-origin: 0% 0%; cursor: text;&quot; role=&quot;presentation&quot;&gt;&lt;span style=&quot;transform-origin: 0% 0%; cursor: text;&quot; id=&quot;page1R_mcid17&quot;&gt;&lt;/span&gt;&lt;span class=&quot;markedcontent&quot;&gt;&lt;span style=&quot;transform-origin: 0% 0%; transform: scaleX(1.00021); cursor: text;&quot; role=&quot;presentation&quot;&gt;&lt;span style=&quot;line-height: 9.96667px; color: black; background-image: initial; background-position: initial; background-size: initial; background-repeat: initial; background-attachment: initial; background-origin: initial; background-clip: initial;&quot;&gt;+void setLastName(String lastName)&lt;/span&gt;&lt;/span&gt;&lt;/span&gt;&lt;/span&gt;&lt;span style=&quot;font-family: Arial, sans-serif; color: black; background: white;&quot;&gt;&lt;br style=&quot;transform-origin: 0% 0%; cursor: text;&quot; role=&quot;presentation&quot;&gt;&lt;span style=&quot;transform-origin: 0% 0%; cursor: text;&quot; id=&quot;page1R_mcid18&quot;&gt;&lt;/span&gt;&lt;span class=&quot;markedcontent&quot;&gt;&lt;span style=&quot;transform-origin: 0% 0%; transform: scaleX(1.00019); cursor: text;&quot; role=&quot;presentation&quot;&gt;&lt;span style=&quot;line-height: 9.96667px; color: black; background-image: initial; background-position: initial; background-size: initial; background-repeat: initial; background-attachment: initial; background-origin: initial; background-clip: initial;&quot;&gt;+String getDateOfBirth()&lt;/span&gt;&lt;/span&gt;&lt;/span&gt;&lt;/span&gt;&lt;span style=&quot;font-family: Arial, sans-serif; color: black; background: white;&quot;&gt;&lt;br style=&quot;transform-origin: 0% 0%; cursor: text;&quot; role=&quot;presentation&quot;&gt;&lt;span style=&quot;transform-origin: 0% 0%; cursor: text;&quot; id=&quot;page1R_mcid19&quot;&gt;&lt;/span&gt;&lt;span class=&quot;markedcontent&quot;&gt;&lt;span style=&quot;transform-origin: 0% 0%; transform: scaleX(1.0002); cursor: text;&quot; role=&quot;presentation&quot;&gt;&lt;span style=&quot;line-height: 9.96667px; color: black; background-image: initial; background-position: initial; background-size: initial; background-repeat: initial; background-attachment: initial; background-origin: initial; background-clip: initial;&quot;&gt;+void setDateOfBirth(String dateOfBirth)&lt;/span&gt;&lt;/span&gt;&lt;/span&gt;&lt;/span&gt;&lt;span style=&quot;font-family: Arial, sans-serif; color: black; background: white;&quot;&gt;&lt;br style=&quot;transform-origin: 0% 0%; cursor: text;&quot; role=&quot;presentation&quot;&gt;&lt;span style=&quot;transform-origin: 0% 0%; cursor: text;&quot; id=&quot;page1R_mcid20&quot;&gt;&lt;/span&gt;&lt;span class=&quot;markedcontent&quot;&gt;&lt;span style=&quot;transform-origin: 0% 0%; transform: scaleX(1.00022); cursor: text;&quot; role=&quot;presentation&quot;&gt;&lt;span style=&quot;line-height: 9.96667px; color: black; background-image: initial; background-position: initial; background-size: initial; background-repeat: initial; background-attachment: initial; background-origin: initial; background-clip: initial;&quot;&gt;+int getAssignedSocialID()&lt;/span&gt;&lt;/span&gt;&lt;/span&gt;&lt;/span&gt;&lt;span style=&quot;font-family: Arial, sans-serif; color: black; background: white;&quot;&gt;&lt;br style=&quot;transform-origin: 0% 0%; cursor: text;&quot; role=&quot;presentation&quot;&gt;&lt;span style=&quot;transform-origin: 0% 0%; cursor: text;&quot; id=&quot;page1R_mcid21&quot;&gt;&lt;/span&gt;&lt;span class=&quot;markedcontent&quot;&gt;&lt;span style=&quot;transform-origin: 0% 0%; transform: scaleX(1.00021); cursor: text;&quot; role=&quot;presentation&quot;&gt;&lt;span style=&quot;line-height: 9.96667px; color: black; background-image: initial; background-position: initial; background-size: initial; background-repeat: initial; background-attachment: initial; background-origin: initial; background-clip: initial;&quot;&gt;+FamilyGroup getFamilyGroup&lt;/span&gt;&lt;/span&gt;&lt;/span&gt;&lt;/span&gt;&lt;span style=&quot;font-family: Arial, sans-serif; color: black; background: white;&quot;&gt;&lt;br style=&quot;transform-origin: 0% 0%; cursor: text;&quot; role=&quot;presentation&quot;&gt;&lt;span style=&quot;transform-origin: 0% 0%; cursor: text;&quot; id=&quot;page1R_mcid22&quot;&gt;&lt;/span&gt;&lt;span class=&quot;markedcontent&quot;&gt;&lt;span style=&quot;transform-origin: 0% 0%; transform: scaleX(1.00022); cursor: text;&quot; role=&quot;presentation&quot;&gt;&lt;span style=&quot;line-height: 9.96667px; color: black; background-image: initial; background-position: initial; background-size: initial; background-repeat: initial; background-attachment: initial; background-origin: initial; background-clip: initial;&quot;&gt;+MedicalRecord[] getMedicalRecords()&lt;/span&gt;&lt;/span&gt;&lt;/span&gt;&lt;/span&gt;&lt;span style=&quot;font-family: Arial, sans-serif; color: black; background: white;&quot;&gt;&lt;br style=&quot;transform-origin: 0% 0%; cursor: text;&quot; role=&quot;presentation&quot;&gt;&lt;span style=&quot;transform-origin: 0% 0%; cursor: text;&quot; id=&quot;page1R_mcid24&quot;&gt;&lt;/span&gt;&lt;span class=&quot;markedcontent&quot;&gt;&lt;span style=&quot;transform-origin: 0% 0%; transform: scaleX(1.00021); cursor: text;&quot; role=&quot;presentation&quot;&gt;&lt;span style=&quot;line-height: 9.96667px; color: black; background-image: initial; background-position: initial; background-size: initial; background-repeat: initial; background-attachment: initial; background-origin: initial; background-clip: initial;&quot;&gt;+void setFamilyGroup(FamilyGroup)&lt;/span&gt;&lt;/span&gt;&lt;/span&gt;&lt;/span&gt;&lt;span style=&quot;font-family: Arial, sans-serif; color: black; background: white;&quot;&gt;&lt;br style=&quot;transform-origin: 0% 0%; cursor: text;&quot; role=&quot;presentation&quot;&gt;&lt;span style=&quot;transform-origin: 0% 0%; cursor: text;&quot; id=&quot;page1R_mcid25&quot;&gt;&lt;/span&gt;&lt;span class=&quot;markedcontent&quot;&gt;&lt;span style=&quot;transform-origin: 0% 0%; transform: scaleX(1.00021); cursor: text;&quot; role=&quot;presentation&quot;&gt;&lt;span style=&quot;line-height: 9.96667px; color: black; background-image: initial; background-position: initial; background-size: initial; background-repeat: initial; background-attachment: initial; background-origin: initial; background-clip: initial;&quot;&gt;+void setMedicalRecords(MedicalRecord[] records)&lt;/span&gt;&lt;/span&gt;&lt;/span&gt;&lt;/span&gt;&lt;span style=&quot;font-family: Arial, sans-serif; color: black; background: white;&quot;&gt;&lt;br style=&quot;transform-origin: 0% 0%; cursor: text;&quot; role=&quot;presentation&quot;&gt;&lt;span style=&quot;transform-origin: 0% 0%; cursor: text;&quot; id=&quot;page1R_mcid27&quot;&gt;&lt;/span&gt;&lt;span class=&quot;markedcontent&quot;&gt;&lt;span style=&quot;transform-origin: 0% 0%; transform: scaleX(1.00023); cursor: text;&quot; role=&quot;presentation&quot;&gt;&lt;span style=&quot;line-height: 9.96667px; color: black; background-image: initial; background-position: initial; background-size: initial; background-repeat: initial; background-attachment: initial; background-origin: initial; background-clip: initial;&quot;&gt;+void addSupply(Supply supply)&lt;/span&gt;&lt;/span&gt;&lt;/span&gt;&lt;/span&gt;&lt;/font&gt;&lt;/p&gt;&lt;p style=&quot;margin: 0cm 0cm 0px; line-height: 18.4px; font-family: Aptos, sans-serif; color: rgb(0, 0, 0);&quot; class=&quot;MsoNormal&quot;&gt;&lt;font style=&quot;font-size: 9px;&quot;&gt;&lt;span style=&quot;font-family: Arial, sans-serif; background: white; color: black;&quot;&gt;&lt;font color=&quot;#000000&quot;&gt;+Supply[] getSupplies()&lt;br style=&quot;transform-origin: 0% 0%; cursor: text;&quot; role=&quot;presentation&quot;&gt;&lt;/font&gt;&lt;font color=&quot;rgba(0, 0, 0, 0)&quot;&gt;&lt;span style=&quot;transform-origin: 0% 0%; cursor: text; transform-origin: 0% 0%;&quot; id=&quot;page1R_mcid28&quot;&gt;&lt;/span&gt;&lt;/font&gt;&lt;span style=&quot;color: light-dark(black, rgb(237, 237, 237));&quot; class=&quot;markedcontent&quot;&gt;&lt;span style=&quot;transform-origin: 0% 0%; transform: scaleX(1.00023); cursor: text;&quot; role=&quot;presentation&quot;&gt;&lt;span style=&quot;line-height: 9.96667px; color: black; background-image: initial; background-position: initial; background-size: initial; background-repeat: initial; background-attachment: initial; background-origin: initial; background-clip: initial;&quot;&gt;+void removeSupply(Supply unwantedSupply)&lt;/span&gt;&lt;/span&gt;&lt;/span&gt;&lt;/span&gt;&lt;span style=&quot;color: black; font-family: Arial, sans-serif; background: white;&quot;&gt;&lt;br style=&quot;transform-origin: 0% 0%; cursor: text;&quot; role=&quot;presentation&quot;&gt;&lt;span style=&quot;transform-origin: 0% 0%; cursor: text;&quot; id=&quot;page1R_mcid29&quot;&gt;&lt;/span&gt;&lt;span class=&quot;markedcontent&quot;&gt;&lt;span style=&quot;transform-origin: 0% 0%; transform: scaleX(1.00022); cursor: text;&quot; role=&quot;presentation&quot;&gt;&lt;span style=&quot;line-height: 9.96667px; color: black; background-image: initial; background-position: initial; background-size: initial; background-repeat: initial; background-attachment: initial; background-origin: initial; background-clip: initial;&quot;&gt;+void removeFromFamilyGroup(FamilyGroup family)&lt;/span&gt;&lt;/span&gt;&lt;/span&gt;&lt;/span&gt;&lt;span style=&quot;color: black; font-family: Arial, sans-serif; background: white;&quot;&gt;&lt;br style=&quot;transform-origin: 0% 0%; cursor: text;&quot; role=&quot;presentation&quot;&gt;&lt;span style=&quot;transform-origin: 0% 0%; cursor: text;&quot; id=&quot;page1R_mcid31&quot;&gt;&lt;/span&gt;&lt;span class=&quot;markedcontent&quot;&gt;&lt;span style=&quot;transform-origin: 0% 0%; transform: scaleX(1.00023); cursor: text;&quot; role=&quot;presentation&quot;&gt;&lt;span style=&quot;line-height: 9.96667px; color: black; background-image: initial; background-position: initial; background-size: initial; background-repeat: initial; background-attachment: initial; background-origin: initial; background-clip: initial;&quot;&gt;+void addMedicalRecord(MedicalRecord record)&lt;/span&gt;&lt;/span&gt;&lt;/span&gt;&lt;/span&gt;&lt;span style=&quot;color: black; font-family: Arial, sans-serif; background: white;&quot;&gt;&lt;br style=&quot;transform-origin: 0% 0%; cursor: text;&quot; role=&quot;presentation&quot;&gt;&lt;span style=&quot;transform-origin: 0% 0%; cursor: text;&quot; id=&quot;page1R_mcid32&quot;&gt;&lt;/span&gt;&lt;span class=&quot;markedcontent&quot;&gt;&lt;span style=&quot;transform-origin: 0% 0%; transform: scaleX(1.0002); cursor: text;&quot; role=&quot;presentation&quot;&gt;&lt;span style=&quot;line-height: 9.96667px; color: black; background-image: initial; background-position: initial; background-size: initial; background-repeat: initial; background-attachment: initial; background-origin: initial; background-clip: initial;&quot;&gt;+String getEntryDate()&lt;/span&gt;&lt;/span&gt;&lt;/span&gt;&lt;/span&gt;&lt;span style=&quot;color: black; font-family: Arial, sans-serif; background: white;&quot;&gt;&lt;br style=&quot;transform-origin: 0% 0%; cursor: text;&quot; role=&quot;presentation&quot;&gt;&lt;span style=&quot;transform-origin: 0% 0%; cursor: text;&quot; id=&quot;page1R_mcid33&quot;&gt;&lt;/span&gt;&lt;span class=&quot;markedcontent&quot;&gt;&lt;span style=&quot;transform-origin: 0% 0%; transform: scaleX(1.0002); cursor: text;&quot; role=&quot;presentation&quot;&gt;&lt;span style=&quot;line-height: 9.96667px; color: black; background-image: initial; background-position: initial; background-size: initial; background-repeat: initial; background-attachment: initial; background-origin: initial; background-clip: initial;&quot;&gt;+String getComments()&lt;/span&gt;&lt;/span&gt;&lt;/span&gt;&lt;/span&gt;&lt;span style=&quot;color: black; font-family: Arial, sans-serif; background: white;&quot;&gt;&lt;br style=&quot;transform-origin: 0% 0%; cursor: text;&quot; role=&quot;presentation&quot;&gt;&lt;span style=&quot;transform-origin: 0% 0%; cursor: text;&quot; id=&quot;page1R_mcid34&quot;&gt;&lt;/span&gt;&lt;span class=&quot;markedcontent&quot;&gt;&lt;span style=&quot;transform-origin: 0% 0%; transform: scaleX(1.0002); cursor: text;&quot; role=&quot;presentation&quot;&gt;&lt;span style=&quot;line-height: 9.96667px; color: black; background-image: initial; background-position: initial; background-size: initial; background-repeat: initial; background-attachment: initial; background-origin: initial; background-clip: initial;&quot;&gt;+void setComments(String comments)&lt;/span&gt;&lt;/span&gt;&lt;/span&gt;&lt;/span&gt;&lt;span style=&quot;color: black; font-family: Arial, sans-serif; background: white;&quot;&gt;&lt;br style=&quot;transform-origin: 0% 0%; cursor: text;&quot; role=&quot;presentation&quot;&gt;&lt;span style=&quot;transform-origin: 0% 0%; cursor: text;&quot; id=&quot;page1R_mcid35&quot;&gt;&lt;/span&gt;&lt;span class=&quot;markedcontent&quot;&gt;&lt;span style=&quot;transform-origin: 0% 0%; transform: scaleX(1.00021); cursor: text;&quot; role=&quot;presentation&quot;&gt;&lt;span style=&quot;line-height: 9.96667px; color: black; background-image: initial; background-position: initial; background-size: initial; background-repeat: initial; background-attachment: initial; background-origin: initial; background-clip: initial;&quot;&gt;+String getGender()&lt;/span&gt;&lt;/span&gt;&lt;/span&gt;&lt;/span&gt;&lt;span style=&quot;color: black; font-family: Arial, sans-serif; background: white;&quot;&gt;&lt;br style=&quot;transform-origin: 0% 0%; cursor: text;&quot; role=&quot;presentation&quot;&gt;&lt;span style=&quot;transform-origin: 0% 0%; cursor: text;&quot; id=&quot;page1R_mcid36&quot;&gt;&lt;/span&gt;&lt;span class=&quot;markedcontent&quot;&gt;&lt;span style=&quot;transform-origin: 0% 0%; transform: scaleX(1.00022); cursor: text;&quot; role=&quot;presentation&quot;&gt;&lt;span style=&quot;line-height: 9.96667px; color: black; background-image: initial; background-position: initial; background-size: initial; background-repeat: initial; background-attachment: initial; background-origin: initial; background-clip: initial;&quot;&gt;+void setGender(String gender)&lt;/span&gt;&lt;/span&gt;&lt;/span&gt;&lt;/span&gt;&lt;/font&gt;&lt;/p&gt;&lt;p style=&quot;margin: 0cm 0cm 0px; line-height: 18.4px; font-family: Aptos, sans-serif; color: rgb(0, 0, 0);&quot; class=&quot;MsoNormal&quot;&gt;&lt;font style=&quot;font-size: 9px;&quot;&gt;&lt;span style=&quot;font-family: Arial, sans-serif; background: white; color: black;&quot;&gt;&lt;font color=&quot;#000000&quot;&gt;+void saveData()&lt;br style=&quot;transform-origin: 0% 0%; cursor: text;&quot; role=&quot;presentation&quot;&gt;&lt;/font&gt;&lt;font color=&quot;rgba(0, 0, 0, 0)&quot;&gt;&lt;span style=&quot;transform-origin: 0% 0%; cursor: text; transform-origin: 0% 0%;&quot; id=&quot;page1R_mcid37&quot;&gt;&lt;/span&gt;&lt;/font&gt;&lt;span style=&quot;color: light-dark(black, rgb(237, 237, 237));&quot; class=&quot;markedcontent&quot;&gt;&lt;span style=&quot;transform-origin: 0% 0%; transform: scaleX(1.00022); cursor: text;&quot; role=&quot;presentation&quot;&gt;&lt;span style=&quot;line-height: 9.96667px; color: black; background-image: initial; background-position: initial; background-size: initial; background-repeat: initial; background-attachment: initial; background-origin: initial; background-clip: initial;&quot;&gt;&lt;u&gt;-int generateSocialID()&lt;/u&gt;&lt;/span&gt;&lt;/span&gt;&lt;/span&gt;&lt;/span&gt;&lt;u style=&quot;color: light-dark(rgb(0, 0, 0), rgb(237, 237, 237));&quot;&gt;&lt;span style=&quot;font-family: Arial, sans-serif; color: black; background: white;&quot;&gt;&lt;br style=&quot;transform-origin: 0% 0%; cursor: text;&quot; role=&quot;presentation&quot;&gt;&lt;span style=&quot;transform-origin: 0% 0%; cursor: text;&quot; id=&quot;page1R_mcid38&quot;&gt;&lt;/span&gt;&lt;span class=&quot;markedcontent&quot;&gt;&lt;span style=&quot;transform-origin: 0% 0%; transform: scaleX(1.00023); cursor: text;&quot; role=&quot;presentation&quot;&gt;&lt;span style=&quot;line-height: 9.96667px; color: black; background-image: initial; background-position: initial; background-size: initial; background-repeat: initial; background-attachment: initial; background-origin: initial; background-clip: initial;&quot;&gt;-boolean isV&lt;/span&gt;&lt;span style=&quot;transform-origin: 0% 0%; transform: scaleX(1.00021); cursor: text;&quot; role=&quot;presentation&quot;&gt;alidDateFormat(String date)&lt;/span&gt;&lt;/span&gt;&lt;/span&gt;&lt;/span&gt;&lt;span style=&quot;font-family: Arial, sans-serif; color: black; background: white;&quot;&gt;&lt;br style=&quot;transform-origin: 0% 0%; cursor: text;&quot; role=&quot;presentation&quot;&gt;&lt;span style=&quot;cursor: text; transform-origin: 0% 0%;&quot; id=&quot;page1R_mcid39&quot;&gt;&lt;/span&gt;&lt;span style=&quot;&quot; class=&quot;markedcontent&quot;&gt;&lt;span style=&quot;transform-origin: 0% 0%; transform: scaleX(1.00022); cursor: text;&quot; role=&quot;presentation&quot;&gt;&lt;span style=&quot;line-height: 9.96667px; color: black; background-image: initial; background-position: initial; background-size: initial; background-repeat: initial; background-attachment: initial; background-origin: initial; background-clip: initial;&quot;&gt;-int convertDateStringT&lt;/span&gt;&lt;span style=&quot;transform-origin: 0% 0%; transform: scaleX(1.00019); cursor: text;&quot; role=&quot;presentation&quot;&gt;oInt(String dateStr)&lt;/span&gt;&lt;/span&gt;&lt;/span&gt;&lt;/span&gt;&lt;/u&gt;&lt;/font&gt;&lt;font color=&quot;rgba(0, 0, 0, 0)&quot;&gt;&lt;span style=&quot;font-size: 12pt; font-size: 12pt;&quot;&gt;&lt;/span&gt;&lt;/font&gt;&lt;/p&gt;&lt;p style=&quot;margin: 0cm 0cm 0px; line-height: 18.4px; font-family: Aptos, sans-serif; color: rgb(0, 0, 0);&quot; class=&quot;MsoNormal&quot;&gt;&lt;font style=&quot;font-size: 9px;&quot;&gt;&lt;u style=&quot;color: light-dark(rgb(0, 0, 0), rgb(237, 237, 237));&quot;&gt;&lt;span style=&quot;font-family: Arial, sans-serif; color: black; background: white;&quot;&gt;&lt;span style=&quot;&quot; class=&quot;markedcontent&quot;&gt;&lt;span style=&quot;transform-origin: 0% 0%; transform: scaleX(1.00022); cursor: text;&quot; role=&quot;presentation&quot;&gt;&lt;span style=&quot;transform-origin: 0% 0%; transform: scaleX(1.00019); cursor: text;&quot; role=&quot;presentation&quot;&gt;&lt;br&gt;&lt;/span&gt;&lt;/span&gt;&lt;/span&gt;&lt;/span&gt;&lt;/u&gt;&lt;/font&gt;&lt;/p&gt;" style="text;strokeColor=none;fillColor=none;align=left;verticalAlign=top;spacingLeft=4;spacingRight=4;overflow=hidden;rotatable=0;points=[[0,0.5],[1,0.5]];portConstraint=eastwest;whiteSpace=wrap;html=1;" vertex="1" parent="2">
                    <mxGeometry y="218" width="310" height="562" as="geometry"/>
                </mxCell>
                <mxCell id="7" value="FamilyGroup" style="swimlane;fontStyle=1;align=center;verticalAlign=top;childLayout=stackLayout;horizontal=1;startSize=26;horizontalStack=0;resizeParent=1;resizeParentMax=0;resizeLast=0;collapsible=1;marginBottom=0;whiteSpace=wrap;html=1;movable=0;resizable=0;rotatable=0;deletable=0;editable=0;locked=1;connectable=0;" vertex="1" parent="1">
                    <mxGeometry x="940" y="270" width="240" height="110" as="geometry"/>
                </mxCell>
                <mxCell id="8" value="-groupID: String" style="text;strokeColor=none;fillColor=none;align=left;verticalAlign=top;spacingLeft=4;spacingRight=4;overflow=hidden;rotatable=0;points=[[0,0.5],[1,0.5]];portConstraint=eastwest;whiteSpace=wrap;html=1;" vertex="1" parent="7">
                    <mxGeometry y="26" width="240" height="26" as="geometry"/>
                </mxCell>
                <mxCell id="9" value="" style="line;strokeWidth=1;fillColor=none;align=left;verticalAlign=middle;spacingTop=-1;spacingLeft=3;spacingRight=3;rotatable=0;labelPosition=right;points=[];portConstraint=eastwest;strokeColor=inherit;" vertex="1" parent="7">
                    <mxGeometry y="52" width="240" height="8" as="geometry"/>
                </mxCell>
                <mxCell id="10" value="+void addMember(DisasterVictim)&lt;div&gt;+DisasterVictim getMembers()&lt;/div&gt;" style="text;strokeColor=none;fillColor=none;align=left;verticalAlign=top;spacingLeft=4;spacingRight=4;overflow=hidden;rotatable=0;points=[[0,0.5],[1,0.5]];portConstraint=eastwest;whiteSpace=wrap;html=1;" vertex="1" parent="7">
                    <mxGeometry y="60" width="240" height="50" as="geometry"/>
                </mxCell>
                <mxCell id="11" value="" style="endArrow=open;startArrow=none;endFill=0;startFill=0;endSize=8;html=1;verticalAlign=bottom;labelBackgroundColor=none;strokeWidth=1;entryX=0;entryY=0;entryDx=0;entryDy=0;exitX=1;exitY=0;exitDx=0;exitDy=0;movable=0;resizable=0;rotatable=0;deletable=0;editable=0;locked=1;connectable=0;" edge="1" parent="1" source="2" target="7">
                    <mxGeometry width="160" relative="1" as="geometry">
                        <mxPoint x="870" y="310" as="sourcePoint"/>
                        <mxPoint x="920" y="190" as="targetPoint"/>
                    </mxGeometry>
                </mxCell>
                <mxCell id="12" value="0..1" style="text;html=1;align=center;verticalAlign=middle;whiteSpace=wrap;rounded=0;movable=0;resizable=0;rotatable=0;deletable=0;editable=0;locked=1;connectable=0;" vertex="1" parent="1">
                    <mxGeometry x="900" y="250" width="50" height="20" as="geometry"/>
                </mxCell>
                <mxCell id="14" value="*" style="text;html=1;align=center;verticalAlign=middle;whiteSpace=wrap;rounded=0;movable=0;resizable=0;rotatable=0;deletable=0;editable=0;locked=1;connectable=0;" vertex="1" parent="1">
                    <mxGeometry x="680" y="250" width="20" height="30" as="geometry"/>
                </mxCell>
                <mxCell id="15" value="belongs to" style="text;html=1;align=center;verticalAlign=middle;whiteSpace=wrap;rounded=0;movable=0;resizable=0;rotatable=0;deletable=0;editable=0;locked=1;connectable=0;" vertex="1" parent="1">
                    <mxGeometry x="770" y="239" width="60" height="31" as="geometry"/>
                </mxCell>
                <mxCell id="30" value="MedicalRecord" style="swimlane;fontStyle=1;align=center;verticalAlign=top;childLayout=stackLayout;horizontal=1;startSize=26;horizontalStack=0;resizeParent=1;resizeParentMax=0;resizeLast=0;collapsible=1;marginBottom=0;whiteSpace=wrap;html=1;movable=1;resizable=1;rotatable=1;deletable=1;editable=1;locked=0;connectable=1;" vertex="1" parent="1">
                    <mxGeometry x="-220" y="325" width="390" height="310" as="geometry"/>
                </mxCell>
                <mxCell id="31" value="&lt;p style=&quot;margin: 0cm 0cm 8pt; line-height: 18.4px; font-family: Aptos, sans-serif; color: rgb(0, 0, 0);&quot; class=&quot;MsoNormal&quot;&gt;&lt;font style=&quot;font-size: 9px;&quot;&gt;&lt;span style=&quot;&quot; class=&quot;markedcontent&quot;&gt;&lt;span style=&quot;line-height: 9.96667px; font-family: Arial, sans-serif; color: black; background: white;&quot;&gt;- Location location&lt;/span&gt;&lt;/span&gt;&lt;span style=&quot;font-family: Arial, sans-serif; color: black; background: white;&quot;&gt;&lt;br style=&quot;transform-origin: 0% 0%; cursor: text;&quot; role=&quot;presentation&quot;&gt;&lt;span style=&quot;transform-origin: 0% 0%; cursor: text;&quot; id=&quot;page1R_mcid83&quot;&gt;&lt;/span&gt;&lt;span class=&quot;markedcontent&quot;&gt;&lt;span style=&quot;transform-origin: 0% 0%; transform: scaleX(1.0002); cursor: text;&quot; role=&quot;presentation&quot;&gt;&lt;span style=&quot;line-height: 9.96667px; color: black; background-image: initial; background-position: initial; background-size: initial; background-repeat: initial; background-attachment: initial; background-origin: initial; background-clip: initial;&quot;&gt;- String treatmentDetails&lt;/span&gt;&lt;/span&gt;&lt;/span&gt;&lt;/span&gt;&lt;span style=&quot;font-family: Arial, sans-serif; color: black; background: white;&quot;&gt;&lt;br style=&quot;transform-origin: 0% 0%; cursor: text;&quot; role=&quot;presentation&quot;&gt;&lt;span style=&quot;cursor: text; transform-origin: 0% 0%;&quot; id=&quot;page1R_mcid84&quot;&gt;&lt;/span&gt;&lt;span style=&quot;&quot; class=&quot;markedcontent&quot;&gt;&lt;span style=&quot;transform-origin: 0% 0%; transform: scaleX(1.00021); cursor: text;&quot; role=&quot;presentation&quot;&gt;&lt;span style=&quot;line-height: 9.96667px; color: black; background-image: initial; background-position: initial; background-size: initial; background-repeat: initial; background-attachment: initial; background-origin: initial; background-clip: initial;&quot;&gt;- String dateOfT&lt;/span&gt;&lt;span style=&quot;transform-origin: 0% 0%; transform: scaleX(1.00025); cursor: text;&quot; role=&quot;presentation&quot;&gt;reatment&lt;/span&gt;&lt;/span&gt;&lt;/span&gt;&lt;/span&gt;&lt;/font&gt;&lt;/p&gt;" style="text;strokeColor=none;fillColor=none;align=left;verticalAlign=top;spacingLeft=4;spacingRight=4;overflow=hidden;rotatable=0;points=[[0,0.5],[1,0.5]];portConstraint=eastwest;whiteSpace=wrap;html=1;" vertex="1" parent="30">
                    <mxGeometry y="26" width="390" height="74" as="geometry"/>
                </mxCell>
                <mxCell id="32" value="" style="line;strokeWidth=1;fillColor=none;align=left;verticalAlign=middle;spacingTop=-1;spacingLeft=3;spacingRight=3;rotatable=0;labelPosition=right;points=[];portConstraint=eastwest;strokeColor=inherit;" vertex="1" parent="30">
                    <mxGeometry y="100" width="390" height="8" as="geometry"/>
                </mxCell>
                <mxCell id="33" value="&lt;p style=&quot;margin: 0cm 0cm 8pt; line-height: 18.4px; font-family: Aptos, sans-serif; color: rgb(0, 0, 0);&quot; class=&quot;MsoNormal&quot;&gt;&lt;font style=&quot;font-size: 9px;&quot;&gt;&lt;span style=&quot;&quot; class=&quot;markedcontent&quot;&gt;&lt;span style=&quot;line-height: 9.96667px; font-family: Arial, sans-serif; color: black; background: white;&quot;&gt;+MedicalRecord(Location location, String treatmentDetails, String dateOfT&lt;/span&gt;&lt;span style=&quot;transform-origin: 0% 0%; transform: scaleX(1.0002); cursor: text;&quot; role=&quot;presentation&quot;&gt;reatment)&lt;/span&gt;&lt;/span&gt;&lt;span style=&quot;font-family: Arial, sans-serif; color: black; background: white;&quot;&gt;&lt;br style=&quot;transform-origin: 0% 0%; cursor: text;&quot; role=&quot;presentation&quot;&gt;&lt;span style=&quot;transform-origin: 0% 0%; cursor: text;&quot; id=&quot;page1R_mcid86&quot;&gt;&lt;/span&gt;&lt;span class=&quot;markedcontent&quot;&gt;&lt;span style=&quot;transform-origin: 0% 0%; transform: scaleX(1.00022); cursor: text;&quot; role=&quot;presentation&quot;&gt;&lt;span style=&quot;line-height: 9.96667px; color: black; background-image: initial; background-position: initial; background-size: initial; background-repeat: initial; background-attachment: initial; background-origin: initial; background-clip: initial;&quot;&gt;+Location getLocation()&lt;/span&gt;&lt;/span&gt;&lt;/span&gt;&lt;/span&gt;&lt;span style=&quot;font-family: Arial, sans-serif; color: black; background: white;&quot;&gt;&lt;br style=&quot;transform-origin: 0% 0%; cursor: text;&quot; role=&quot;presentation&quot;&gt;&lt;span style=&quot;transform-origin: 0% 0%; cursor: text;&quot; id=&quot;page1R_mcid87&quot;&gt;&lt;/span&gt;&lt;span class=&quot;markedcontent&quot;&gt;&lt;span style=&quot;transform-origin: 0% 0%; transform: scaleX(1.00022); cursor: text;&quot; role=&quot;presentation&quot;&gt;&lt;span style=&quot;line-height: 9.96667px; color: black; background-image: initial; background-position: initial; background-size: initial; background-repeat: initial; background-attachment: initial; background-origin: initial; background-clip: initial;&quot;&gt;+void setLocation(Location location)&lt;/span&gt;&lt;/span&gt;&lt;/span&gt;&lt;/span&gt;&lt;span style=&quot;font-family: Arial, sans-serif; color: black; background: white;&quot;&gt;&lt;br style=&quot;transform-origin: 0% 0%; cursor: text;&quot; role=&quot;presentation&quot;&gt;&lt;span style=&quot;transform-origin: 0% 0%; cursor: text;&quot; id=&quot;page1R_mcid88&quot;&gt;&lt;/span&gt;&lt;span class=&quot;markedcontent&quot;&gt;&lt;span style=&quot;transform-origin: 0% 0%; transform: scaleX(1.00023); cursor: text;&quot; role=&quot;presentation&quot;&gt;&lt;span style=&quot;line-height: 9.96667px; color: black; background-image: initial; background-position: initial; background-size: initial; background-repeat: initial; background-attachment: initial; background-origin: initial; background-clip: initial;&quot;&gt;+String getT&lt;/span&gt;&lt;span style=&quot;transform-origin: 0% 0%; transform: scaleX(1.00021); cursor: text;&quot; role=&quot;presentation&quot;&gt;reatmentDetails()&lt;/span&gt;&lt;/span&gt;&lt;/span&gt;&lt;/span&gt;&lt;span style=&quot;font-family: Arial, sans-serif; color: black; background: white;&quot;&gt;&lt;br style=&quot;transform-origin: 0% 0%; cursor: text;&quot; role=&quot;presentation&quot;&gt;&lt;span style=&quot;transform-origin: 0% 0%; cursor: text;&quot; id=&quot;page1R_mcid89&quot;&gt;&lt;/span&gt;&lt;span class=&quot;markedcontent&quot;&gt;&lt;span style=&quot;transform-origin: 0% 0%; transform: scaleX(1.00024); cursor: text;&quot; role=&quot;presentation&quot;&gt;&lt;span style=&quot;line-height: 9.96667px; color: black; background-image: initial; background-position: initial; background-size: initial; background-repeat: initial; background-attachment: initial; background-origin: initial; background-clip: initial;&quot;&gt;+void setT&lt;/span&gt;&lt;span style=&quot;transform-origin: 0% 0%; transform: scaleX(1.00021); cursor: text;&quot; role=&quot;presentation&quot;&gt;reatmentDetails(String treatmentDetails)&lt;/span&gt;&lt;/span&gt;&lt;/span&gt;&lt;/span&gt;&lt;span style=&quot;font-family: Arial, sans-serif; color: black; background: white;&quot;&gt;&lt;br style=&quot;transform-origin: 0% 0%; cursor: text;&quot; role=&quot;presentation&quot;&gt;&lt;span style=&quot;transform-origin: 0% 0%; cursor: text;&quot; id=&quot;page1R_mcid90&quot;&gt;&lt;/span&gt;&lt;span class=&quot;markedcontent&quot;&gt;&lt;span style=&quot;transform-origin: 0% 0%; transform: scaleX(1.00021); cursor: text;&quot; role=&quot;presentation&quot;&gt;&lt;span style=&quot;line-height: 9.96667px; color: black; background-image: initial; background-position: initial; background-size: initial; background-repeat: initial; background-attachment: initial; background-origin: initial; background-clip: initial;&quot;&gt;+String getDateOfT&lt;/span&gt;&lt;span style=&quot;transform-origin: 0% 0%; transform: scaleX(1.0002); cursor: text;&quot; role=&quot;presentation&quot;&gt;reatment()&lt;/span&gt;&lt;/span&gt;&lt;/span&gt;&lt;/span&gt;&lt;span style=&quot;font-family: Arial, sans-serif; color: black; background: white;&quot;&gt;&lt;br style=&quot;transform-origin: 0% 0%; cursor: text;&quot; role=&quot;presentation&quot;&gt;&lt;span style=&quot;transform-origin: 0% 0%; cursor: text;&quot; id=&quot;page1R_mcid91&quot;&gt;&lt;/span&gt;&lt;span class=&quot;markedcontent&quot;&gt;&lt;span style=&quot;transform-origin: 0% 0%; transform: scaleX(1.00022); cursor: text;&quot; role=&quot;presentation&quot;&gt;&lt;span style=&quot;line-height: 9.96667px; color: black; background-image: initial; background-position: initial; background-size: initial; background-repeat: initial; background-attachment: initial; background-origin: initial; background-clip: initial;&quot;&gt;+void setDateOfT&lt;/span&gt;&lt;span style=&quot;transform-origin: 0% 0%; transform: scaleX(1.00021); cursor: text;&quot; role=&quot;presentation&quot;&gt;reatment(String dateOfT&lt;/span&gt;&lt;span style=&quot;transform-origin: 0% 0%; transform: scaleX(1.0002); cursor: text;&quot; role=&quot;presentation&quot;&gt;reatment)&lt;/span&gt;&lt;/span&gt;&lt;/span&gt;&lt;/span&gt;&lt;span style=&quot;font-family: Arial, sans-serif; color: black; background: white;&quot;&gt;&lt;br style=&quot;transform-origin: 0% 0%; cursor: text;&quot; role=&quot;presentation&quot;&gt;&lt;span style=&quot;cursor: text; transform-origin: 0% 0%;&quot; id=&quot;page1R_mcid92&quot;&gt;&lt;/span&gt;&lt;span style=&quot;&quot; class=&quot;markedcontent&quot;&gt;&lt;span style=&quot;transform-origin: 0% 0%; transform: scaleX(1.00023); cursor: text;&quot; role=&quot;presentation&quot;&gt;&lt;span style=&quot;line-height: 9.96667px; color: black; background-image: initial; background-position: initial; background-size: initial; background-repeat: initial; background-attachment: initial; background-origin: initial; background-clip: initial;&quot;&gt;-boolean isV&lt;/span&gt;&lt;span style=&quot;transform-origin: 0% 0%; transform: scaleX(1.00021); cursor: text;&quot; role=&quot;presentation&quot;&gt;alidDateFormat(String date)&lt;/span&gt;&lt;/span&gt;&lt;/span&gt;&lt;/span&gt;&lt;/font&gt;&lt;span style=&quot;font-size: 12pt;&quot;&gt;&lt;/span&gt;&lt;/p&gt;" style="text;strokeColor=none;fillColor=none;align=left;verticalAlign=top;spacingLeft=4;spacingRight=4;overflow=hidden;rotatable=0;points=[[0,0.5],[1,0.5]];portConstraint=eastwest;whiteSpace=wrap;html=1;" vertex="1" parent="30">
                    <mxGeometry y="108" width="390" height="202" as="geometry"/>
                </mxCell>
                <mxCell id="47" value="" style="endArrow=none;startArrow=diamondThin;endFill=0;startFill=0;html=1;verticalAlign=bottom;labelBackgroundColor=none;strokeWidth=1;startSize=8;endSize=8;entryX=1;entryY=0.5;entryDx=0;entryDy=0;exitX=0;exitY=0.5;exitDx=0;exitDy=0;movable=0;resizable=0;rotatable=0;deletable=0;editable=0;locked=1;connectable=0;" edge="1" parent="1" source="3" target="31">
                    <mxGeometry width="160" relative="1" as="geometry">
                        <mxPoint x="-50" y="190" as="sourcePoint"/>
                        <mxPoint x="110" y="190" as="targetPoint"/>
                    </mxGeometry>
                </mxCell>
                <mxCell id="50" value="0..*" style="text;html=1;align=center;verticalAlign=middle;whiteSpace=wrap;rounded=0;movable=0;resizable=0;rotatable=0;deletable=0;editable=0;locked=1;connectable=0;" vertex="1" parent="1">
                    <mxGeometry x="170" y="314" width="30" height="22" as="geometry"/>
                </mxCell>
                <mxCell id="51" value="1" style="text;html=1;align=center;verticalAlign=middle;whiteSpace=wrap;rounded=0;movable=0;resizable=0;rotatable=0;deletable=0;editable=0;locked=1;connectable=0;" vertex="1" parent="1">
                    <mxGeometry x="350" y="360" width="20" height="20" as="geometry"/>
                </mxCell>
                <mxCell id="53" value="IllegalArgumentException" style="swimlane;fontStyle=1;align=center;verticalAlign=top;childLayout=stackLayout;horizontal=1;startSize=26;horizontalStack=0;resizeParent=1;resizeParentMax=0;resizeLast=0;collapsible=1;marginBottom=0;whiteSpace=wrap;html=1;movable=1;resizable=1;rotatable=1;deletable=1;editable=1;locked=0;connectable=1;" vertex="1" parent="1">
                    <mxGeometry x="-170" y="717" width="290" height="34" as="geometry"/>
                </mxCell>
                <mxCell id="55" value="" style="line;strokeWidth=1;fillColor=none;align=left;verticalAlign=middle;spacingTop=-1;spacingLeft=3;spacingRight=3;rotatable=0;labelPosition=right;points=[];portConstraint=eastwest;strokeColor=inherit;" vertex="1" parent="53">
                    <mxGeometry y="26" width="290" height="8" as="geometry"/>
                </mxCell>
                <mxCell id="57" value="" style="html=1;labelBackgroundColor=#ffffff;startArrow=none;startFill=0;startSize=6;endArrow=classic;endFill=1;endSize=6;jettySize=auto;orthogonalLoop=1;strokeWidth=1;dashed=1;fontSize=14;exitX=-0.005;exitY=0.653;exitDx=0;exitDy=0;exitPerimeter=0;edgeStyle=orthogonalEdgeStyle;entryX=0;entryY=0;entryDx=0;entryDy=0;movable=0;resizable=0;rotatable=0;deletable=0;editable=0;locked=1;connectable=0;" edge="1" parent="1" source="33" target="53">
                    <mxGeometry width="60" height="60" relative="1" as="geometry">
                        <mxPoint x="-260" y="510" as="sourcePoint"/>
                        <mxPoint x="-170" y="640" as="targetPoint"/>
                    </mxGeometry>
                </mxCell>
                <mxCell id="60" value="" style="html=1;labelBackgroundColor=#ffffff;startArrow=none;startFill=0;startSize=6;endArrow=classic;endFill=1;endSize=6;jettySize=auto;orthogonalLoop=1;strokeWidth=1;dashed=1;fontSize=14;exitX=0.001;exitY=0.084;exitDx=0;exitDy=0;exitPerimeter=0;entryX=0;entryY=1;entryDx=0;entryDy=0;movable=0;resizable=0;rotatable=0;deletable=0;editable=0;locked=1;connectable=0;" edge="1" parent="1" source="33" target="53">
                    <mxGeometry width="60" height="60" relative="1" as="geometry">
                        <mxPoint x="-230" y="477" as="sourcePoint"/>
                        <mxPoint x="-180" y="744" as="targetPoint"/>
                        <Array as="points">
                            <mxPoint x="-380" y="394"/>
                            <mxPoint x="-380" y="744"/>
                        </Array>
                    </mxGeometry>
                </mxCell>
                <mxCell id="59" value="" style="html=1;labelBackgroundColor=#ffffff;startArrow=none;startFill=0;startSize=6;endArrow=classic;endFill=1;endSize=6;jettySize=auto;orthogonalLoop=1;strokeWidth=1;dashed=1;fontSize=14;exitX=0.001;exitY=0.369;exitDx=0;exitDy=0;exitPerimeter=0;movable=0;resizable=0;rotatable=0;deletable=0;editable=0;locked=1;connectable=0;" edge="1" parent="1" source="33">
                    <mxGeometry width="60" height="60" relative="1" as="geometry">
                        <mxPoint x="-310" y="450" as="sourcePoint"/>
                        <mxPoint x="-170" y="720" as="targetPoint"/>
                        <Array as="points">
                            <mxPoint x="-310" y="453"/>
                            <mxPoint x="-310" y="720"/>
                        </Array>
                    </mxGeometry>
                </mxCell>
                <mxCell id="62" value="&amp;lt;&amp;lt;throws&amp;gt;&amp;gt;" style="text;html=1;align=center;verticalAlign=middle;whiteSpace=wrap;rounded=0;movable=0;resizable=0;rotatable=0;deletable=0;editable=0;locked=1;connectable=0;" vertex="1" parent="1">
                    <mxGeometry x="-340" y="565" width="60" height="30" as="geometry"/>
                </mxCell>
                <mxCell id="63" value="&amp;lt;&amp;lt;throws&amp;gt;&amp;gt;" style="text;html=1;align=center;verticalAlign=middle;whiteSpace=wrap;rounded=0;movable=0;resizable=0;rotatable=0;deletable=0;editable=0;locked=1;connectable=0;" vertex="1" parent="1">
                    <mxGeometry x="-270" y="580" width="60" height="30" as="geometry"/>
                </mxCell>
                <mxCell id="61" value="&amp;lt;&amp;lt;throws&amp;gt;&amp;gt;" style="text;html=1;align=center;verticalAlign=middle;whiteSpace=wrap;rounded=0;movable=0;resizable=0;rotatable=0;deletable=0;editable=0;locked=1;connectable=0;" vertex="1" parent="1">
                    <mxGeometry x="-410" y="535" width="60" height="30" as="geometry"/>
                </mxCell>
                <mxCell id="66" value="Supply" style="swimlane;fontStyle=1;align=center;verticalAlign=top;childLayout=stackLayout;horizontal=1;startSize=26;horizontalStack=0;resizeParent=1;resizeParentMax=0;resizeLast=0;collapsible=1;marginBottom=0;whiteSpace=wrap;html=1;" vertex="1" parent="1">
                    <mxGeometry x="1100" y="560" width="160" height="198" as="geometry"/>
                </mxCell>
                <mxCell id="67" value="&lt;font style=&quot;font-size: 9px;&quot;&gt;-String type&lt;/font&gt;&lt;div&gt;&lt;font style=&quot;font-size: 9px;&quot;&gt;-int quantity&lt;/font&gt;&lt;/div&gt;" style="text;strokeColor=none;fillColor=none;align=left;verticalAlign=top;spacingLeft=4;spacingRight=4;overflow=hidden;rotatable=0;points=[[0,0.5],[1,0.5]];portConstraint=eastwest;whiteSpace=wrap;html=1;" vertex="1" parent="66">
                    <mxGeometry y="26" width="160" height="44" as="geometry"/>
                </mxCell>
                <mxCell id="68" value="" style="line;strokeWidth=1;fillColor=none;align=left;verticalAlign=middle;spacingTop=-1;spacingLeft=3;spacingRight=3;rotatable=0;labelPosition=right;points=[];portConstraint=eastwest;strokeColor=inherit;" vertex="1" parent="66">
                    <mxGeometry y="70" width="160" height="8" as="geometry"/>
                </mxCell>
                <mxCell id="69" value="&lt;p style=&quot;margin: 0cm 0cm 8pt; line-height: 18.4px; font-family: Aptos, sans-serif; color: rgb(0, 0, 0);&quot; class=&quot;MsoNormal&quot;&gt;&lt;font style=&quot;font-size: 9px;&quot;&gt;&lt;span style=&quot;&quot; class=&quot;markedcontent&quot;&gt;&lt;span style=&quot;line-height: 7.66667px; font-family: Arial, sans-serif; color: black; background: white;&quot;&gt;+Supply(String type, int quantity)&lt;/span&gt;&lt;/span&gt;&lt;span style=&quot;font-family: Arial, sans-serif; color: black; background: white;&quot;&gt;&lt;br style=&quot;transform-origin: 0% 0%; cursor: text;&quot; role=&quot;presentation&quot;&gt;&lt;span style=&quot;transform-origin: 0% 0%; cursor: text;&quot; id=&quot;page1R_mcid116&quot;&gt;&lt;/span&gt;&lt;span class=&quot;markedcontent&quot;&gt;&lt;span style=&quot;transform-origin: 0% 0%; transform: scaleX(1.0002); cursor: text;&quot; role=&quot;presentation&quot;&gt;&lt;span style=&quot;line-height: 7.66667px; color: black; background-image: initial; background-position: initial; background-size: initial; background-repeat: initial; background-attachment: initial; background-origin: initial; background-clip: initial;&quot;&gt;+String getT&lt;/span&gt;&lt;span style=&quot;transform-origin: 0% 0%; transform: scaleX(1.00018); cursor: text;&quot; role=&quot;presentation&quot;&gt;ype()&lt;/span&gt;&lt;/span&gt;&lt;/span&gt;&lt;/span&gt;&lt;span style=&quot;font-family: Arial, sans-serif; color: black; background: white;&quot;&gt;&lt;br style=&quot;transform-origin: 0% 0%; cursor: text;&quot; role=&quot;presentation&quot;&gt;&lt;span style=&quot;transform-origin: 0% 0%; cursor: text;&quot; id=&quot;page1R_mcid117&quot;&gt;&lt;/span&gt;&lt;span class=&quot;markedcontent&quot;&gt;&lt;span style=&quot;transform-origin: 0% 0%; transform: scaleX(1.00021); cursor: text;&quot; role=&quot;presentation&quot;&gt;&lt;span style=&quot;line-height: 7.66667px; color: black; background-image: initial; background-position: initial; background-size: initial; background-repeat: initial; background-attachment: initial; background-origin: initial; background-clip: initial;&quot;&gt;+void setT&lt;/span&gt;&lt;span style=&quot;transform-origin: 0% 0%; transform: scaleX(1.00017); cursor: text;&quot; role=&quot;presentation&quot;&gt;ype(String type)&lt;/span&gt;&lt;/span&gt;&lt;/span&gt;&lt;/span&gt;&lt;span style=&quot;font-family: Arial, sans-serif; color: black; background: white;&quot;&gt;&lt;br style=&quot;transform-origin: 0% 0%; cursor: text;&quot; role=&quot;presentation&quot;&gt;&lt;span style=&quot;transform-origin: 0% 0%; cursor: text;&quot; id=&quot;page1R_mcid118&quot;&gt;&lt;/span&gt;&lt;span class=&quot;markedcontent&quot;&gt;&lt;span style=&quot;transform-origin: 0% 0%; transform: scaleX(1.00017); cursor: text;&quot; role=&quot;presentation&quot;&gt;&lt;span style=&quot;line-height: 7.66667px; color: black; background-image: initial; background-position: initial; background-size: initial; background-repeat: initial; background-attachment: initial; background-origin: initial; background-clip: initial;&quot;&gt;+int getQuantity()&lt;/span&gt;&lt;/span&gt;&lt;/span&gt;&lt;/span&gt;&lt;span style=&quot;font-family: Arial, sans-serif; color: black; background: white;&quot;&gt;&lt;br style=&quot;transform-origin: 0% 0%; cursor: text;&quot; role=&quot;presentation&quot;&gt;&lt;span style=&quot;transform-origin: 0% 0%; cursor: text;&quot; id=&quot;page1R_mcid119&quot;&gt;&lt;/span&gt;&lt;span class=&quot;markedcontent&quot;&gt;&lt;span style=&quot;transform-origin: 0% 0%; transform: scaleX(1.00017); cursor: text;&quot; role=&quot;presentation&quot;&gt;&lt;span style=&quot;line-height: 7.66667px; color: black; background-image: initial; background-position: initial; background-size: initial; background-repeat: initial; background-attachment: initial; background-origin: initial; background-clip: initial;&quot;&gt;+void setQuantity(int quantity)&lt;/span&gt;&lt;/span&gt;&lt;/span&gt;&lt;/span&gt;&lt;/font&gt;&lt;span style=&quot;font-family: Arial, sans-serif; color: black; background: white;&quot;&gt;&lt;font style=&quot;font-size: 9px;&quot;&gt;&lt;br style=&quot;transform-origin: 0% 0%; cursor: text;&quot; role=&quot;presentation&quot;&gt;&lt;/font&gt;&lt;br&gt;&lt;span style=&quot;transform-origin: 0% 0%; cursor: text; font-size: 12pt; transform-origin: 0% 0%;&quot; id=&quot;page1R_mcid120&quot;&gt;&lt;/span&gt;&lt;span style=&quot;font-size: 12pt;&quot;&gt;&lt;/span&gt;&lt;/span&gt;&lt;/p&gt;&lt;span style=&quot;font-size: medium; transform-origin: 0% 0%; transform: scaleX(1.00077); cursor: text;&quot; role=&quot;presentation&quot;&gt;&lt;/span&gt;" style="text;strokeColor=none;fillColor=none;align=left;verticalAlign=top;spacingLeft=4;spacingRight=4;overflow=hidden;rotatable=0;points=[[0,0.5],[1,0.5]];portConstraint=eastwest;whiteSpace=wrap;html=1;" vertex="1" parent="66">
                    <mxGeometry y="78" width="160" height="120" as="geometry"/>
                </mxCell>
                <mxCell id="70" value="Cot" style="swimlane;fontStyle=1;align=center;verticalAlign=top;childLayout=stackLayout;horizontal=1;startSize=26;horizontalStack=0;resizeParent=1;resizeParentMax=0;resizeLast=0;collapsible=1;marginBottom=0;whiteSpace=wrap;html=1;" vertex="1" parent="1">
                    <mxGeometry x="1400" y="900" width="200" height="160" as="geometry"/>
                </mxCell>
                <mxCell id="71" value="-String gridLocation&lt;div&gt;-int room&lt;/div&gt;" style="text;strokeColor=none;fillColor=none;align=left;verticalAlign=top;spacingLeft=4;spacingRight=4;overflow=hidden;rotatable=0;points=[[0,0.5],[1,0.5]];portConstraint=eastwest;whiteSpace=wrap;html=1;" vertex="1" parent="70">
                    <mxGeometry y="26" width="200" height="44" as="geometry"/>
                </mxCell>
                <mxCell id="72" value="" style="line;strokeWidth=1;fillColor=none;align=left;verticalAlign=middle;spacingTop=-1;spacingLeft=3;spacingRight=3;rotatable=0;labelPosition=right;points=[];portConstraint=eastwest;strokeColor=inherit;" vertex="1" parent="70">
                    <mxGeometry y="70" width="200" height="8" as="geometry"/>
                </mxCell>
                <mxCell id="73" value="&lt;span style=&quot;color: rgb(0, 0, 0);&quot;&gt;+void setGridLocation(String gridLocation)&lt;/span&gt;&lt;div&gt;+String getGridLocation()&lt;/div&gt;&lt;div&gt;&lt;span style=&quot;color: rgb(0, 0, 0);&quot;&gt;+void setRoom(int room)&lt;/span&gt;&lt;div&gt;+String getRoom()&lt;/div&gt;&lt;/div&gt;" style="text;strokeColor=none;fillColor=none;align=left;verticalAlign=top;spacingLeft=4;spacingRight=4;overflow=hidden;rotatable=0;points=[[0,0.5],[1,0.5]];portConstraint=eastwest;whiteSpace=wrap;html=1;" vertex="1" parent="70">
                    <mxGeometry y="78" width="200" height="82" as="geometry"/>
                </mxCell>
                <mxCell id="74" value="Blanket" style="swimlane;fontStyle=1;align=center;verticalAlign=top;childLayout=stackLayout;horizontal=1;startSize=26;horizontalStack=0;resizeParent=1;resizeParentMax=0;resizeLast=0;collapsible=1;marginBottom=0;whiteSpace=wrap;html=1;" vertex="1" parent="1">
                    <mxGeometry x="1200" y="900" width="160" height="34" as="geometry"/>
                </mxCell>
                <mxCell id="76" value="" style="line;strokeWidth=1;fillColor=none;align=left;verticalAlign=middle;spacingTop=-1;spacingLeft=3;spacingRight=3;rotatable=0;labelPosition=right;points=[];portConstraint=eastwest;strokeColor=inherit;" vertex="1" parent="74">
                    <mxGeometry y="26" width="160" height="8" as="geometry"/>
                </mxCell>
                <mxCell id="78" value="PersonalBelonging" style="swimlane;fontStyle=1;align=center;verticalAlign=top;childLayout=stackLayout;horizontal=1;startSize=26;horizontalStack=0;resizeParent=1;resizeParentMax=0;resizeLast=0;collapsible=1;marginBottom=0;whiteSpace=wrap;html=1;" vertex="1" parent="1">
                    <mxGeometry x="920" y="900" width="240" height="120" as="geometry"/>
                </mxCell>
                <mxCell id="79" value="-String description:" style="text;strokeColor=none;fillColor=none;align=left;verticalAlign=top;spacingLeft=4;spacingRight=4;overflow=hidden;rotatable=0;points=[[0,0.5],[1,0.5]];portConstraint=eastwest;whiteSpace=wrap;html=1;" vertex="1" parent="78">
                    <mxGeometry y="26" width="240" height="26" as="geometry"/>
                </mxCell>
                <mxCell id="80" value="" style="line;strokeWidth=1;fillColor=none;align=left;verticalAlign=middle;spacingTop=-1;spacingLeft=3;spacingRight=3;rotatable=0;labelPosition=right;points=[];portConstraint=eastwest;strokeColor=inherit;" vertex="1" parent="78">
                    <mxGeometry y="52" width="240" height="8" as="geometry"/>
                </mxCell>
                <mxCell id="81" value="+void setDescription()&lt;div&gt;+String getDescription(String description)&lt;/div&gt;" style="text;strokeColor=none;fillColor=none;align=left;verticalAlign=top;spacingLeft=4;spacingRight=4;overflow=hidden;rotatable=0;points=[[0,0.5],[1,0.5]];portConstraint=eastwest;whiteSpace=wrap;html=1;" vertex="1" parent="78">
                    <mxGeometry y="60" width="240" height="60" as="geometry"/>
                </mxCell>
                <mxCell id="82" value="Water" style="swimlane;fontStyle=1;align=center;verticalAlign=top;childLayout=stackLayout;horizontal=1;startSize=26;horizontalStack=0;resizeParent=1;resizeParentMax=0;resizeLast=0;collapsible=1;marginBottom=0;whiteSpace=wrap;html=1;" vertex="1" parent="1">
                    <mxGeometry x="720" y="900" width="160" height="86" as="geometry"/>
                </mxCell>
                <mxCell id="83" value="-String allocationDate&amp;nbsp;" style="text;strokeColor=none;fillColor=none;align=left;verticalAlign=top;spacingLeft=4;spacingRight=4;overflow=hidden;rotatable=0;points=[[0,0.5],[1,0.5]];portConstraint=eastwest;whiteSpace=wrap;html=1;" vertex="1" parent="82">
                    <mxGeometry y="26" width="160" height="26" as="geometry"/>
                </mxCell>
                <mxCell id="84" value="" style="line;strokeWidth=1;fillColor=none;align=left;verticalAlign=middle;spacingTop=-1;spacingLeft=3;spacingRight=3;rotatable=0;labelPosition=right;points=[];portConstraint=eastwest;strokeColor=inherit;" vertex="1" parent="82">
                    <mxGeometry y="52" width="160" height="8" as="geometry"/>
                </mxCell>
                <mxCell id="85" value="+boolean isExpired():" style="text;strokeColor=none;fillColor=none;align=left;verticalAlign=top;spacingLeft=4;spacingRight=4;overflow=hidden;rotatable=0;points=[[0,0.5],[1,0.5]];portConstraint=eastwest;whiteSpace=wrap;html=1;" vertex="1" parent="82">
                    <mxGeometry y="60" width="160" height="26" as="geometry"/>
                </mxCell>
                <mxCell id="86" value="Location" style="swimlane;fontStyle=1;align=center;verticalAlign=top;childLayout=stackLayout;horizontal=1;startSize=26;horizontalStack=0;resizeParent=1;resizeParentMax=0;resizeLast=0;collapsible=1;marginBottom=0;whiteSpace=wrap;html=1;" vertex="1" parent="1">
                    <mxGeometry x="1430" y="215" width="280" height="440" as="geometry"/>
                </mxCell>
                <mxCell id="87" value="&lt;p style=&quot;margin: 0cm 0cm 8pt; line-height: 18.4px; font-family: Aptos, sans-serif; color: rgb(0, 0, 0);&quot; class=&quot;MsoNormal&quot;&gt;&lt;font style=&quot;font-size: 9px;&quot;&gt;&lt;span style=&quot;&quot; class=&quot;markedcontent&quot;&gt;&lt;span style=&quot;line-height: 9.96667px; font-family: Arial, sans-serif; color: black; background: white;&quot;&gt;- String name&lt;/span&gt;&lt;/span&gt;&lt;span style=&quot;font-family: Arial, sans-serif; color: black; background: white;&quot;&gt;&lt;br style=&quot;transform-origin: 0% 0%; cursor: text;&quot; role=&quot;presentation&quot;&gt;&lt;span style=&quot;transform-origin: 0% 0%; cursor: text;&quot; id=&quot;page1R_mcid64&quot;&gt;&lt;/span&gt;&lt;span class=&quot;markedcontent&quot;&gt;&lt;span style=&quot;transform-origin: 0% 0%; transform: scaleX(1.00021); cursor: text;&quot; role=&quot;presentation&quot;&gt;&lt;span style=&quot;line-height: 9.96667px; color: black; background-image: initial; background-position: initial; background-size: initial; background-repeat: initial; background-attachment: initial; background-origin: initial; background-clip: initial;&quot;&gt;- String address&lt;/span&gt;&lt;/span&gt;&lt;/span&gt;&lt;/span&gt;&lt;span style=&quot;font-family: Arial, sans-serif; color: black; background: white;&quot;&gt;&lt;br style=&quot;transform-origin: 0% 0%; cursor: text;&quot; role=&quot;presentation&quot;&gt;&lt;span style=&quot;transform-origin: 0% 0%; cursor: text;&quot; id=&quot;page1R_mcid65&quot;&gt;&lt;/span&gt;&lt;span class=&quot;markedcontent&quot;&gt;&lt;span style=&quot;transform-origin: 0% 0%; transform: scaleX(1.00019); cursor: text;&quot; role=&quot;presentation&quot;&gt;&lt;span style=&quot;line-height: 9.96667px; color: black; background-image: initial; background-position: initial; background-size: initial; background-repeat: initial; background-attachment: initial; background-origin: initial; background-clip: initial;&quot;&gt;- DisasterV&lt;/span&gt;&lt;span style=&quot;transform-origin: 0% 0%; transform: scaleX(1.00019); cursor: text;&quot; role=&quot;presentation&quot;&gt;ictim[] occupants&lt;/span&gt;&lt;/span&gt;&lt;/span&gt;&lt;/span&gt;&lt;span style=&quot;font-family: Arial, sans-serif; color: black; background: white;&quot;&gt;&lt;br style=&quot;transform-origin: 0% 0%; cursor: text;&quot; role=&quot;presentation&quot;&gt;&lt;span style=&quot;cursor: text; transform-origin: 0% 0%;&quot; id=&quot;page1R_mcid66&quot;&gt;&lt;/span&gt;&lt;span style=&quot;&quot; class=&quot;markedcontent&quot;&gt;&lt;span style=&quot;transform-origin: 0% 0%; transform: scaleX(1.00021); cursor: text;&quot; role=&quot;presentation&quot;&gt;&lt;span style=&quot;line-height: 9.96667px; color: black; background-image: initial; background-position: initial; background-size: initial; background-repeat: initial; background-attachment: initial; background-origin: initial; background-clip: initial;&quot;&gt;- Supply[] supplies&lt;/span&gt;&lt;/span&gt;&lt;/span&gt;&lt;/span&gt;&lt;/font&gt;&lt;span style=&quot;font-size: 12pt;&quot;&gt;&lt;/span&gt;&lt;/p&gt;" style="text;strokeColor=none;fillColor=none;align=left;verticalAlign=top;spacingLeft=4;spacingRight=4;overflow=hidden;rotatable=0;points=[[0,0.5],[1,0.5]];portConstraint=eastwest;whiteSpace=wrap;html=1;" vertex="1" parent="86">
                    <mxGeometry y="26" width="280" height="94" as="geometry"/>
                </mxCell>
                <mxCell id="88" value="" style="line;strokeWidth=1;fillColor=none;align=left;verticalAlign=middle;spacingTop=-1;spacingLeft=3;spacingRight=3;rotatable=0;labelPosition=right;points=[];portConstraint=eastwest;strokeColor=inherit;" vertex="1" parent="86">
                    <mxGeometry y="120" width="280" height="8" as="geometry"/>
                </mxCell>
                <mxCell id="89" value="&lt;p style=&quot;margin: 0cm 0cm 0px; line-height: 18.4px; font-family: Aptos, sans-serif; color: rgb(0, 0, 0);&quot; class=&quot;MsoNormal&quot;&gt;&lt;font style=&quot;font-size: 9px;&quot;&gt;&lt;span style=&quot;&quot; class=&quot;markedcontent&quot;&gt;&lt;span style=&quot;line-height: 9.96667px; font-family: Arial, sans-serif; color: black; background: white;&quot;&gt;+Location(String name, String address)&lt;/span&gt;&lt;/span&gt;&lt;span style=&quot;font-family: Arial, sans-serif; color: black; background: white;&quot;&gt;&lt;br style=&quot;transform-origin: 0% 0%; cursor: text;&quot; role=&quot;presentation&quot;&gt;&lt;span style=&quot;transform-origin: 0% 0%; cursor: text;&quot; id=&quot;page1R_mcid68&quot;&gt;&lt;/span&gt;&lt;span class=&quot;markedcontent&quot;&gt;&lt;span style=&quot;transform-origin: 0% 0%; transform: scaleX(1.00021); cursor: text;&quot; role=&quot;presentation&quot;&gt;&lt;span style=&quot;line-height: 9.96667px; color: black; background-image: initial; background-position: initial; background-size: initial; background-repeat: initial; background-attachment: initial; background-origin: initial; background-clip: initial;&quot;&gt;+String getName()&lt;/span&gt;&lt;/span&gt;&lt;/span&gt;&lt;/span&gt;&lt;span style=&quot;font-family: Arial, sans-serif; color: black; background: white;&quot;&gt;&lt;br style=&quot;transform-origin: 0% 0%; cursor: text;&quot; role=&quot;presentation&quot;&gt;&lt;span style=&quot;transform-origin: 0% 0%; cursor: text;&quot; id=&quot;page1R_mcid69&quot;&gt;&lt;/span&gt;&lt;span class=&quot;markedcontent&quot;&gt;&lt;span style=&quot;transform-origin: 0% 0%; transform: scaleX(1.00021); cursor: text;&quot; role=&quot;presentation&quot;&gt;&lt;span style=&quot;line-height: 9.96667px; color: black; background-image: initial; background-position: initial; background-size: initial; background-repeat: initial; background-attachment: initial; background-origin: initial; background-clip: initial;&quot;&gt;+void setName(String name)&lt;/span&gt;&lt;/span&gt;&lt;/span&gt;&lt;/span&gt;&lt;span style=&quot;font-family: Arial, sans-serif; color: black; background: white;&quot;&gt;&lt;br style=&quot;transform-origin: 0% 0%; cursor: text;&quot; role=&quot;presentation&quot;&gt;&lt;span style=&quot;transform-origin: 0% 0%; cursor: text;&quot; id=&quot;page1R_mcid70&quot;&gt;&lt;/span&gt;&lt;span class=&quot;markedcontent&quot;&gt;&lt;span style=&quot;transform-origin: 0% 0%; transform: scaleX(1.00021); cursor: text;&quot; role=&quot;presentation&quot;&gt;&lt;span style=&quot;line-height: 9.96667px; color: black; background-image: initial; background-position: initial; background-size: initial; background-repeat: initial; background-attachment: initial; background-origin: initial; background-clip: initial;&quot;&gt;+String getAddress()&lt;/span&gt;&lt;/span&gt;&lt;/span&gt;&lt;/span&gt;&lt;span style=&quot;font-family: Arial, sans-serif; color: black; background: white;&quot;&gt;&lt;br style=&quot;transform-origin: 0% 0%; cursor: text;&quot; role=&quot;presentation&quot;&gt;&lt;span style=&quot;transform-origin: 0% 0%; cursor: text;&quot; id=&quot;page1R_mcid71&quot;&gt;&lt;/span&gt;&lt;span class=&quot;markedcontent&quot;&gt;&lt;span style=&quot;transform-origin: 0% 0%; transform: scaleX(1.00021); cursor: text;&quot; role=&quot;presentation&quot;&gt;&lt;span style=&quot;line-height: 9.96667px; color: black; background-image: initial; background-position: initial; background-size: initial; background-repeat: initial; background-attachment: initial; background-origin: initial; background-clip: initial;&quot;&gt;+void setAddress(String address)&lt;/span&gt;&lt;/span&gt;&lt;/span&gt;&lt;/span&gt;&lt;span style=&quot;font-family: Arial, sans-serif; color: black; background: white;&quot;&gt;&lt;br style=&quot;transform-origin: 0% 0%; cursor: text;&quot; role=&quot;presentation&quot;&gt;&lt;span style=&quot;transform-origin: 0% 0%; cursor: text;&quot; id=&quot;page1R_mcid72&quot;&gt;&lt;/span&gt;&lt;span class=&quot;markedcontent&quot;&gt;&lt;span style=&quot;transform-origin: 0% 0%; transform: scaleX(1.0002); cursor: text;&quot; role=&quot;presentation&quot;&gt;&lt;span style=&quot;line-height: 9.96667px; color: black; background-image: initial; background-position: initial; background-size: initial; background-repeat: initial; background-attachment: initial; background-origin: initial; background-clip: initial;&quot;&gt;+DisasterV&lt;/span&gt;&lt;span style=&quot;transform-origin: 0% 0%; transform: scaleX(1.00019); cursor: text;&quot; role=&quot;presentation&quot;&gt;ictim[] getOccupants()&lt;/span&gt;&lt;/span&gt;&lt;/span&gt;&lt;/span&gt;&lt;span style=&quot;font-family: Arial, sans-serif; color: black; background: white;&quot;&gt;&lt;br style=&quot;transform-origin: 0% 0%; cursor: text;&quot; role=&quot;presentation&quot;&gt;&lt;span style=&quot;transform-origin: 0% 0%; cursor: text;&quot; id=&quot;page1R_mcid73&quot;&gt;&lt;/span&gt;&lt;span class=&quot;markedcontent&quot;&gt;&lt;span style=&quot;transform-origin: 0% 0%; transform: scaleX(1.0002); cursor: text;&quot; role=&quot;presentation&quot;&gt;&lt;span style=&quot;line-height: 9.96667px; color: black; background-image: initial; background-position: initial; background-size: initial; background-repeat: initial; background-attachment: initial; background-origin: initial; background-clip: initial;&quot;&gt;+void setOccupants(DisasterV&lt;/span&gt;&lt;span style=&quot;transform-origin: 0% 0%; transform: scaleX(1.00019); cursor: text;&quot; role=&quot;presentation&quot;&gt;ictim[] occupants)&lt;/span&gt;&lt;/span&gt;&lt;/span&gt;&lt;/span&gt;&lt;span style=&quot;font-family: Arial, sans-serif; color: black; background: white;&quot;&gt;&lt;br style=&quot;transform-origin: 0% 0%; cursor: text;&quot; role=&quot;presentation&quot;&gt;&lt;span style=&quot;transform-origin: 0% 0%; cursor: text;&quot; id=&quot;page1R_mcid74&quot;&gt;&lt;/span&gt;&lt;span class=&quot;markedcontent&quot;&gt;&lt;span style=&quot;transform-origin: 0% 0%; transform: scaleX(1.00022); cursor: text;&quot; role=&quot;presentation&quot;&gt;&lt;span style=&quot;line-height: 9.96667px; color: black; background-image: initial; background-position: initial; background-size: initial; background-repeat: initial; background-attachment: initial; background-origin: initial; background-clip: initial;&quot;&gt;+Supply[] getSupplies()&lt;/span&gt;&lt;/span&gt;&lt;/span&gt;&lt;/span&gt;&lt;span style=&quot;font-family: Arial, sans-serif; color: black; background: white;&quot;&gt;&lt;br style=&quot;transform-origin: 0% 0%; cursor: text;&quot; role=&quot;presentation&quot;&gt;&lt;span style=&quot;transform-origin: 0% 0%; cursor: text;&quot; id=&quot;page1R_mcid75&quot;&gt;&lt;/span&gt;&lt;span class=&quot;markedcontent&quot;&gt;&lt;span style=&quot;transform-origin: 0% 0%; transform: scaleX(1.00022); cursor: text;&quot; role=&quot;presentation&quot;&gt;&lt;span style=&quot;line-height: 9.96667px; color: black; background-image: initial; background-position: initial; background-size: initial; background-repeat: initial; background-attachment: initial; background-origin: initial; background-clip: initial;&quot;&gt;+void setSupplies(Supply[] supplies)&lt;/span&gt;&lt;/span&gt;&lt;/span&gt;&lt;/span&gt;&lt;span style=&quot;font-family: Arial, sans-serif; color: black; background: white;&quot;&gt;&lt;br style=&quot;transform-origin: 0% 0%; cursor: text;&quot; role=&quot;presentation&quot;&gt;&lt;span style=&quot;transform-origin: 0% 0%; cursor: text;&quot; id=&quot;page1R_mcid76&quot;&gt;&lt;/span&gt;&lt;span class=&quot;markedcontent&quot;&gt;&lt;span style=&quot;transform-origin: 0% 0%; transform: scaleX(1.00021); cursor: text;&quot; role=&quot;presentation&quot;&gt;&lt;span style=&quot;line-height: 9.96667px; color: black; background-image: initial; background-position: initial; background-size: initial; background-repeat: initial; background-attachment: initial; background-origin: initial; background-clip: initial;&quot;&gt;+void addOccupant(DisasterV&lt;/span&gt;&lt;span style=&quot;transform-origin: 0% 0%; transform: scaleX(1.0002); cursor: text;&quot; role=&quot;presentation&quot;&gt;ictim occupant)&lt;/span&gt;&lt;/span&gt;&lt;/span&gt;&lt;/span&gt;&lt;span style=&quot;font-family: Arial, sans-serif; color: black; background: white;&quot;&gt;&lt;br style=&quot;transform-origin: 0% 0%; cursor: text;&quot; role=&quot;presentation&quot;&gt;&lt;span style=&quot;transform-origin: 0% 0%; cursor: text;&quot; id=&quot;page1R_mcid77&quot;&gt;&lt;/span&gt;&lt;span class=&quot;markedcontent&quot;&gt;&lt;span style=&quot;transform-origin: 0% 0%; transform: scaleX(1.00021); cursor: text;&quot; role=&quot;presentation&quot;&gt;&lt;span style=&quot;line-height: 9.96667px; color: black; background-image: initial; background-position: initial; background-size: initial; background-repeat: initial; background-attachment: initial; background-origin: initial; background-clip: initial;&quot;&gt;+void removeOccupant(DisasterV&lt;/span&gt;&lt;span style=&quot;transform-origin: 0% 0%; transform: scaleX(1.0002); cursor: text;&quot; role=&quot;presentation&quot;&gt;ictim occupant)&lt;/span&gt;&lt;/span&gt;&lt;/span&gt;&lt;/span&gt;&lt;span style=&quot;font-family: Arial, sans-serif; color: black; background: white;&quot;&gt;&lt;br style=&quot;transform-origin: 0% 0%; cursor: text;&quot; role=&quot;presentation&quot;&gt;&lt;span style=&quot;transform-origin: 0% 0%; cursor: text;&quot; id=&quot;page1R_mcid78&quot;&gt;&lt;/span&gt;&lt;span class=&quot;markedcontent&quot;&gt;&lt;span style=&quot;transform-origin: 0% 0%; transform: scaleX(1.00023); cursor: text;&quot; role=&quot;presentation&quot;&gt;&lt;span style=&quot;line-height: 9.96667px; color: black; background-image: initial; background-position: initial; background-size: initial; background-repeat: initial; background-attachment: initial; background-origin: initial; background-clip: initial;&quot;&gt;+void addSupply(Supply supply)&lt;/span&gt;&lt;/span&gt;&lt;/span&gt;&lt;/span&gt;&lt;span style=&quot;font-family: Arial, sans-serif; color: black; background: white;&quot;&gt;&lt;br style=&quot;transform-origin: 0% 0%; cursor: text;&quot; role=&quot;presentation&quot;&gt;&lt;span style=&quot;transform-origin: 0% 0%; cursor: text;&quot; id=&quot;page1R_mcid79&quot;&gt;&lt;/span&gt;&lt;span class=&quot;markedcontent&quot;&gt;&lt;span style=&quot;transform-origin: 0% 0%; transform: scaleX(1.00023); cursor: text;&quot; role=&quot;presentation&quot;&gt;&lt;span style=&quot;line-height: 9.96667px; color: black; background-image: initial; background-position: initial; background-size: initial; background-repeat: initial; background-attachment: initial; background-origin: initial; background-clip: initial;&quot;&gt;+void addSupply(Supply supply)&lt;/span&gt;&lt;/span&gt;&lt;/span&gt;&lt;/span&gt;&lt;span style=&quot;font-family: Arial, sans-serif; color: black; background: white;&quot;&gt;&lt;br style=&quot;transform-origin: 0% 0%; cursor: text;&quot; role=&quot;presentation&quot;&gt;&lt;span style=&quot;cursor: text; transform-origin: 0% 0%;&quot; id=&quot;page1R_mcid80&quot;&gt;&lt;/span&gt;&lt;span style=&quot;&quot; class=&quot;markedcontent&quot;&gt;&lt;span style=&quot;transform-origin: 0% 0%; transform: scaleX(1.00022); cursor: text;&quot; role=&quot;presentation&quot;&gt;&lt;span style=&quot;line-height: 9.96667px; color: black; background-image: initial; background-position: initial; background-size: initial; background-repeat: initial; background-attachment: initial; background-origin: initial; background-clip: initial;&quot;&gt;+void removeSupply(Supply supply&lt;/span&gt;&lt;/span&gt;&lt;/span&gt;&lt;/span&gt;&lt;/font&gt;&lt;span style=&quot;font-size: 12pt;&quot;&gt;&lt;/span&gt;&lt;/p&gt;&lt;p style=&quot;margin: 0cm 0cm 0px; line-height: 18.4px; font-family: Aptos, sans-serif; color: rgb(0, 0, 0);&quot; class=&quot;MsoNormal&quot;&gt;&lt;font style=&quot;font-size: 9px;&quot;&gt;&lt;span style=&quot;font-family: Arial, sans-serif; color: black; background: white;&quot;&gt;&lt;span style=&quot;&quot; class=&quot;markedcontent&quot;&gt;&lt;span style=&quot;transform-origin: 0% 0%; transform: scaleX(1.00022); cursor: text;&quot; role=&quot;presentation&quot;&gt;&lt;span style=&quot;line-height: 9.96667px; color: black; background-image: initial; background-position: initial; background-size: initial; background-repeat: initial; background-attachment: initial; background-origin: initial; background-clip: initial;&quot;&gt;&lt;span style=&quot;color: rgb(63, 63, 63);&quot;&gt;+void saveData()&lt;/span&gt;&lt;br style=&quot;color: rgb(63, 63, 63); transform-origin: 0% 0%; cursor: text;&quot; role=&quot;presentation&quot;&gt;&lt;/span&gt;&lt;/span&gt;&lt;/span&gt;&lt;/span&gt;&lt;/font&gt;&lt;/p&gt;&lt;p style=&quot;margin: 0cm 0cm 8pt; line-height: 18.4px; font-family: Aptos, sans-serif; color: rgb(0, 0, 0);&quot; class=&quot;MsoNormal&quot;&gt;&lt;font style=&quot;font-size: 9px;&quot;&gt;&lt;span style=&quot;font-family: Arial, sans-serif; color: black; background: white;&quot;&gt;&lt;span style=&quot;&quot; class=&quot;markedcontent&quot;&gt;&lt;span style=&quot;transform-origin: 0% 0%; transform: scaleX(1.00022); cursor: text;&quot; role=&quot;presentation&quot;&gt;&lt;span style=&quot;line-height: 9.96667px; color: black; background-image: initial; background-position: initial; background-size: initial; background-repeat: initial; background-attachment: initial; background-origin: initial; background-clip: initial;&quot;&gt;&lt;br&gt;&lt;/span&gt;&lt;/span&gt;&lt;/span&gt;&lt;/span&gt;&lt;/font&gt;&lt;/p&gt;" style="text;strokeColor=none;fillColor=none;align=left;verticalAlign=top;spacingLeft=4;spacingRight=4;overflow=hidden;rotatable=0;points=[[0,0.5],[1,0.5]];portConstraint=eastwest;whiteSpace=wrap;html=1;" vertex="1" parent="86">
                    <mxGeometry y="128" width="280" height="312" as="geometry"/>
                </mxCell>
                <mxCell id="90" value="Inquirer" style="swimlane;fontStyle=1;align=center;verticalAlign=top;childLayout=stackLayout;horizontal=1;startSize=26;horizontalStack=0;resizeParent=1;resizeParentMax=0;resizeLast=0;collapsible=1;marginBottom=0;whiteSpace=wrap;html=1;" vertex="1" parent="1">
                    <mxGeometry x="1970" y="732" width="340" height="270" as="geometry"/>
                </mxCell>
                <mxCell id="91" value="&lt;p style=&quot;margin: 0cm 0cm 0px; line-height: 18.4px; font-family: Aptos, sans-serif; color: rgb(0, 0, 0);&quot; class=&quot;MsoNormal&quot;&gt;&lt;font style=&quot;font-size: 9px;&quot;&gt;&lt;span style=&quot;&quot; class=&quot;markedcontent&quot;&gt;&lt;span style=&quot;line-height: 9.96667px; font-family: Arial, sans-serif; color: black; background: white;&quot;&gt;- String FIRST_NAME&lt;/span&gt;&lt;/span&gt;&lt;span style=&quot;font-family: Arial, sans-serif; color: black; background: white;&quot;&gt;&lt;br style=&quot;transform-origin: 0% 0%; cursor: text;&quot; role=&quot;presentation&quot;&gt;&lt;span style=&quot;transform-origin: 0% 0%; cursor: text;&quot; id=&quot;page1R_mcid54&quot;&gt;&lt;/span&gt;&lt;span class=&quot;markedcontent&quot;&gt;&lt;span style=&quot;transform-origin: 0% 0%; transform: scaleX(1.00019); cursor: text;&quot; role=&quot;presentation&quot;&gt;&lt;span style=&quot;line-height: 9.96667px; color: black; background-image: initial; background-position: initial; background-size: initial; background-repeat: initial; background-attachment: initial; background-origin: initial; background-clip: initial;&quot;&gt;- String LAST_NAME&lt;/span&gt;&lt;/span&gt;&lt;/span&gt;&lt;/span&gt;&lt;span style=&quot;font-family: Arial, sans-serif; color: black; background: white;&quot;&gt;&lt;br style=&quot;transform-origin: 0% 0%; cursor: text;&quot; role=&quot;presentation&quot;&gt;&lt;span style=&quot;transform-origin: 0% 0%; cursor: text;&quot; id=&quot;page1R_mcid55&quot;&gt;&lt;/span&gt;&lt;span class=&quot;markedcontent&quot;&gt;&lt;span style=&quot;transform-origin: 0% 0%; transform: scaleX(1.0002); cursor: text;&quot; role=&quot;presentation&quot;&gt;&lt;span style=&quot;line-height: 9.96667px; color: black; background-image: initial; background-position: initial; background-size: initial; background-repeat: initial; background-attachment: initial; background-origin: initial; background-clip: initial;&quot;&gt;- String INFO&lt;/span&gt;&lt;/span&gt;&lt;/span&gt;&lt;/span&gt;&lt;span style=&quot;font-family: Arial, sans-serif; color: black; background: white;&quot;&gt;&lt;br style=&quot;transform-origin: 0% 0%; cursor: text;&quot; role=&quot;presentation&quot;&gt;&lt;span style=&quot;cursor: text; transform-origin: 0% 0%;&quot; id=&quot;page1R_mcid56&quot;&gt;&lt;/span&gt;&lt;span style=&quot;&quot; class=&quot;markedcontent&quot;&gt;&lt;span style=&quot;transform-origin: 0% 0%; transform: scaleX(1.00015); cursor: text;&quot; role=&quot;presentation&quot;&gt;&lt;span style=&quot;line-height: 9.96667px; color: black; background-image: initial; background-position: initial; background-size: initial; background-repeat: initial; background-attachment: initial; background-origin: initial; background-clip: initial;&quot;&gt;- String SER&lt;/span&gt;&lt;span style=&quot;transform-origin: 0% 0%; transform: scaleX(1.00019); cursor: text;&quot; role=&quot;presentation&quot;&gt;VICES_PHONE&lt;/span&gt;&lt;/span&gt;&lt;/span&gt;&lt;/span&gt;&lt;/font&gt;&lt;span style=&quot;font-size: 12pt;&quot;&gt;&lt;/span&gt;&lt;/p&gt;&lt;p style=&quot;margin: 0cm 0cm 0px; line-height: 18.4px; font-family: Aptos, sans-serif; color: rgb(0, 0, 0);&quot; class=&quot;MsoNormal&quot;&gt;&lt;font style=&quot;font-size: 9px;&quot;&gt;&lt;span style=&quot;font-family: Arial, sans-serif; color: black; background: white;&quot;&gt;&lt;span style=&quot;&quot; class=&quot;markedcontent&quot;&gt;&lt;span style=&quot;transform-origin: 0% 0%; transform: scaleX(1.00015); cursor: text;&quot; role=&quot;presentation&quot;&gt;&lt;span style=&quot;transform-origin: 0% 0%; transform: scaleX(1.00019); cursor: text;&quot; role=&quot;presentation&quot;&gt;- Location Location&lt;/span&gt;&lt;/span&gt;&lt;/span&gt;&lt;/span&gt;&lt;/font&gt;&lt;/p&gt;&lt;p style=&quot;margin: 0cm 0cm 8pt; line-height: 18.4px; font-family: Aptos, sans-serif; color: rgb(0, 0, 0);&quot; class=&quot;MsoNormal&quot;&gt;&lt;font style=&quot;font-size: 9px;&quot;&gt;&lt;span style=&quot;font-family: Arial, sans-serif; color: black; background: white;&quot;&gt;&lt;span style=&quot;&quot; class=&quot;markedcontent&quot;&gt;&lt;span style=&quot;transform-origin: 0% 0%; transform: scaleX(1.00015); cursor: text;&quot; role=&quot;presentation&quot;&gt;&lt;span style=&quot;transform-origin: 0% 0%; transform: scaleX(1.00019); cursor: text;&quot; role=&quot;presentation&quot;&gt;&lt;br&gt;&lt;/span&gt;&lt;/span&gt;&lt;/span&gt;&lt;/span&gt;&lt;/font&gt;&lt;/p&gt;" style="text;strokeColor=none;fillColor=none;align=left;verticalAlign=top;spacingLeft=4;spacingRight=4;overflow=hidden;rotatable=0;points=[[0,0.5],[1,0.5]];portConstraint=eastwest;whiteSpace=wrap;html=1;" vertex="1" parent="90">
                    <mxGeometry y="26" width="340" height="104" as="geometry"/>
                </mxCell>
                <mxCell id="92" value="" style="line;strokeWidth=1;fillColor=none;align=left;verticalAlign=middle;spacingTop=-1;spacingLeft=3;spacingRight=3;rotatable=0;labelPosition=right;points=[];portConstraint=eastwest;strokeColor=inherit;" vertex="1" parent="90">
                    <mxGeometry y="130" width="340" height="8" as="geometry"/>
                </mxCell>
                <mxCell id="93" value="&lt;p style=&quot;margin: 0cm 0cm 0px; line-height: 18.4px; font-family: Aptos, sans-serif; color: rgb(0, 0, 0);&quot; class=&quot;MsoNormal&quot;&gt;&lt;font style=&quot;font-size: 9px;&quot;&gt;&lt;span style=&quot;&quot; class=&quot;markedcontent&quot;&gt;&lt;span style=&quot;line-height: 9.96667px; font-family: Arial, sans-serif; color: black; background: white;&quot;&gt;+Inquirer(String firstName, String lastName, String phone, String info)&lt;/span&gt;&lt;/span&gt;&lt;/font&gt;&lt;/p&gt;&lt;p style=&quot;margin: 0cm 0cm 0px; line-height: 18.4px; font-family: Aptos, sans-serif; color: rgb(0, 0, 0);&quot; class=&quot;MsoNormal&quot;&gt;&lt;font style=&quot;font-size: 9px;&quot;&gt;&lt;span style=&quot;font-family: Arial, sans-serif; background: white; color: black;&quot;&gt;&lt;font color=&quot;#000000&quot;&gt;+Inquirer(DisasterVictim Victim)&lt;br style=&quot;transform-origin: 0% 0%; cursor: text;&quot; role=&quot;presentation&quot;&gt;&lt;/font&gt;&lt;font color=&quot;rgba(0, 0, 0, 0)&quot;&gt;&lt;span style=&quot;transform-origin: 0% 0%; cursor: text; transform-origin: 0% 0%;&quot; id=&quot;page1R_mcid58&quot;&gt;&lt;/span&gt;&lt;/font&gt;&lt;span style=&quot;color: light-dark(black, rgb(237, 237, 237));&quot; class=&quot;markedcontent&quot;&gt;&lt;span style=&quot;transform-origin: 0% 0%; transform: scaleX(1.0002); cursor: text;&quot; role=&quot;presentation&quot;&gt;&lt;span style=&quot;line-height: 9.96667px; color: black; background-image: initial; background-position: initial; background-size: initial; background-repeat: initial; background-attachment: initial; background-origin: initial; background-clip: initial;&quot;&gt;+String getFirstName()&lt;/span&gt;&lt;/span&gt;&lt;/span&gt;&lt;/span&gt;&lt;span style=&quot;color: black; font-family: Arial, sans-serif; background: white;&quot;&gt;&lt;br style=&quot;transform-origin: 0% 0%; cursor: text;&quot; role=&quot;presentation&quot;&gt;&lt;span style=&quot;transform-origin: 0% 0%; cursor: text;&quot; id=&quot;page1R_mcid59&quot;&gt;&lt;/span&gt;&lt;span class=&quot;markedcontent&quot;&gt;&lt;span style=&quot;transform-origin: 0% 0%; transform: scaleX(1.00021); cursor: text;&quot; role=&quot;presentation&quot;&gt;&lt;span style=&quot;line-height: 9.96667px; color: black; background-image: initial; background-position: initial; background-size: initial; background-repeat: initial; background-attachment: initial; background-origin: initial; background-clip: initial;&quot;&gt;+String getLastName()&lt;/span&gt;&lt;/span&gt;&lt;/span&gt;&lt;/span&gt;&lt;span style=&quot;color: black; font-family: Arial, sans-serif; background: white;&quot;&gt;&lt;br style=&quot;transform-origin: 0% 0%; cursor: text;&quot; role=&quot;presentation&quot;&gt;&lt;span style=&quot;transform-origin: 0% 0%; cursor: text;&quot; id=&quot;page1R_mcid60&quot;&gt;&lt;/span&gt;&lt;span class=&quot;markedcontent&quot;&gt;&lt;span style=&quot;transform-origin: 0% 0%; transform: scaleX(1.00021); cursor: text;&quot; role=&quot;presentation&quot;&gt;&lt;span style=&quot;line-height: 9.96667px; color: black; background-image: initial; background-position: initial; background-size: initial; background-repeat: initial; background-attachment: initial; background-origin: initial; background-clip: initial;&quot;&gt;+String getServicesPhoneNum()&lt;/span&gt;&lt;/span&gt;&lt;/span&gt;&lt;/span&gt;&lt;span style=&quot;color: black; font-family: Arial, sans-serif; background: white;&quot;&gt;&lt;br style=&quot;transform-origin: 0% 0%; cursor: text;&quot; role=&quot;presentation&quot;&gt;&lt;span style=&quot;cursor: text; transform-origin: 0% 0%;&quot; id=&quot;page1R_mcid61&quot;&gt;&lt;/span&gt;&lt;span style=&quot;&quot; class=&quot;markedcontent&quot;&gt;&lt;span style=&quot;transform-origin: 0% 0%; transform: scaleX(1.0002); cursor: text;&quot; role=&quot;presentation&quot;&gt;&lt;span style=&quot;line-height: 9.96667px; color: black; background-image: initial; background-position: initial; background-size: initial; background-repeat: initial; background-attachment: initial; background-origin: initial; background-clip: initial;&quot;&gt;+String getInfo()&lt;/span&gt;&lt;/span&gt;&lt;/span&gt;&lt;/span&gt;&lt;/font&gt;&lt;font color=&quot;rgba(0, 0, 0, 0)&quot;&gt;&lt;span style=&quot;font-size: 12pt; font-size: 12pt;&quot;&gt;&lt;/span&gt;&lt;/font&gt;&lt;/p&gt;" style="text;strokeColor=none;fillColor=none;align=left;verticalAlign=top;spacingLeft=4;spacingRight=4;overflow=hidden;rotatable=0;points=[[0,0.5],[1,0.5]];portConstraint=eastwest;whiteSpace=wrap;html=1;" vertex="1" parent="90">
                    <mxGeometry y="138" width="340" height="132" as="geometry"/>
                </mxCell>
                <mxCell id="94" value="" style="html=1;labelBackgroundColor=#ffffff;startArrow=none;startFill=0;startSize=6;endArrow=classic;endFill=1;endSize=6;jettySize=auto;orthogonalLoop=1;strokeWidth=1;dashed=1;fontSize=14;entryX=0.004;entryY=0.068;entryDx=0;entryDy=0;entryPerimeter=0;exitX=-0.002;exitY=0.103;exitDx=0;exitDy=0;exitPerimeter=0;" edge="1" parent="1" source="96">
                    <mxGeometry width="60" height="60" relative="1" as="geometry">
                        <mxPoint x="1878.64" y="163" as="sourcePoint"/>
                        <mxPoint x="1970.0000000000002" y="749" as="targetPoint"/>
                        <Array as="points">
                            <mxPoint x="1840" y="120"/>
                            <mxPoint x="1838.64" y="750"/>
                        </Array>
                    </mxGeometry>
                </mxCell>
                <mxCell id="95" value="Inquiry" style="swimlane;fontStyle=1;align=center;verticalAlign=top;childLayout=stackLayout;horizontal=1;startSize=26;horizontalStack=0;resizeParent=1;resizeParentMax=0;resizeLast=0;collapsible=1;marginBottom=0;whiteSpace=wrap;html=1;" vertex="1" parent="1">
                    <mxGeometry x="1880" y="80" width="600" height="440" as="geometry"/>
                </mxCell>
                <mxCell id="96" value="&lt;p style=&quot;margin: 0cm 0cm 0px; line-height: 18.4px; font-family: Aptos, sans-serif; color: rgb(0, 0, 0);&quot; class=&quot;MsoNormal&quot;&gt;&lt;font style=&quot;font-size: 9px;&quot;&gt;&lt;span style=&quot;&quot; class=&quot;markedcontent&quot;&gt;&lt;span style=&quot;line-height: 9.96667px; font-family: Arial, sans-serif; color: black; background: white;&quot;&gt;- Inquirer inquirer&lt;/span&gt;&lt;/span&gt;&lt;/font&gt;&lt;/p&gt;&lt;p style=&quot;margin: 0cm 0cm 0px; line-height: 18.4px; font-family: Aptos, sans-serif; color: rgb(0, 0, 0);&quot; class=&quot;MsoNormal&quot;&gt;&lt;font style=&quot;font-size: 9px;&quot;&gt;&lt;span style=&quot;font-family: Arial, sans-serif; background: white; color: black;&quot;&gt;&lt;font color=&quot;rgba(0, 0, 0, 0)&quot;&gt;&lt;span style=&quot;transform-origin: 0% 0%; cursor: text; transform-origin: 0% 0%;&quot; id=&quot;page1R_mcid95&quot;&gt;&lt;/span&gt;&lt;/font&gt;&lt;span style=&quot;color: light-dark(black, rgb(237, 237, 237));&quot; class=&quot;markedcontent&quot;&gt;&lt;span style=&quot;transform-origin: 0% 0%; transform: scaleX(1.00019); cursor: text;&quot; role=&quot;presentation&quot;&gt;&lt;span style=&quot;line-height: 9.96667px; color: black; background-image: initial; background-position: initial; background-size: initial; background-repeat: initial; background-attachment: initial; background-origin: initial; background-clip: initial;&quot;&gt;- DisasterV&lt;/span&gt;&lt;span style=&quot;transform-origin: 0% 0%; transform: scaleX(1.00019); cursor: text;&quot; role=&quot;presentation&quot;&gt;ictim missingPerson&lt;/span&gt;&lt;/span&gt;&lt;/span&gt;&lt;/span&gt;&lt;span style=&quot;color: black; font-family: Arial, sans-serif; background: white;&quot;&gt;&lt;br style=&quot;transform-origin: 0% 0%; cursor: text;&quot; role=&quot;presentation&quot;&gt;&lt;span style=&quot;transform-origin: 0% 0%; cursor: text;&quot; id=&quot;page1R_mcid96&quot;&gt;&lt;/span&gt;&lt;span class=&quot;markedcontent&quot;&gt;&lt;span style=&quot;transform-origin: 0% 0%; transform: scaleX(1.0002); cursor: text;&quot; role=&quot;presentation&quot;&gt;&lt;span style=&quot;line-height: 9.96667px; color: black; background-image: initial; background-position: initial; background-size: initial; background-repeat: initial; background-attachment: initial; background-origin: initial; background-clip: initial;&quot;&gt;- String dateOfInquiry&lt;/span&gt;&lt;/span&gt;&lt;/span&gt;&lt;/span&gt;&lt;span style=&quot;color: black; font-family: Arial, sans-serif; background: white;&quot;&gt;&lt;br style=&quot;transform-origin: 0% 0%; cursor: text;&quot; role=&quot;presentation&quot;&gt;&lt;span style=&quot;transform-origin: 0% 0%; cursor: text;&quot; id=&quot;page1R_mcid97&quot;&gt;&lt;/span&gt;&lt;span class=&quot;markedcontent&quot;&gt;&lt;span style=&quot;transform-origin: 0% 0%; transform: scaleX(1.00019); cursor: text;&quot; role=&quot;presentation&quot;&gt;&lt;span style=&quot;line-height: 9.96667px; color: black; background-image: initial; background-position: initial; background-size: initial; background-repeat: initial; background-attachment: initial; background-origin: initial; background-clip: initial;&quot;&gt;- String infoProvided&lt;/span&gt;&lt;/span&gt;&lt;/span&gt;&lt;/span&gt;&lt;span style=&quot;color: black; font-family: Arial, sans-serif; background: white;&quot;&gt;&lt;br style=&quot;transform-origin: 0% 0%; cursor: text;&quot; role=&quot;presentation&quot;&gt;&lt;span style=&quot;cursor: text; transform-origin: 0% 0%;&quot; id=&quot;page1R_mcid98&quot;&gt;&lt;/span&gt;&lt;span style=&quot;&quot; class=&quot;markedcontent&quot;&gt;&lt;span style=&quot;transform-origin: 0% 0%; transform: scaleX(1.00021); cursor: text;&quot; role=&quot;presentation&quot;&gt;&lt;span style=&quot;line-height: 9.96667px; color: black; background-image: initial; background-position: initial; background-size: initial; background-repeat: initial; background-attachment: initial; background-origin: initial; background-clip: initial;&quot;&gt;- Location lastKnownLocation&lt;/span&gt;&lt;/span&gt;&lt;/span&gt;&lt;/span&gt;&lt;/font&gt;&lt;font color=&quot;rgba(0, 0, 0, 0)&quot;&gt;&lt;span style=&quot;font-size: 12pt; font-size: 12pt;&quot;&gt;&lt;/span&gt;&lt;/font&gt;&lt;/p&gt;" style="text;strokeColor=none;fillColor=none;align=left;verticalAlign=top;spacingLeft=4;spacingRight=4;overflow=hidden;rotatable=0;points=[[0,0.5],[1,0.5]];portConstraint=eastwest;whiteSpace=wrap;html=1;" vertex="1" parent="95">
                    <mxGeometry y="26" width="600" height="134" as="geometry"/>
                </mxCell>
                <mxCell id="97" value="" style="line;strokeWidth=1;fillColor=none;align=left;verticalAlign=middle;spacingTop=-1;spacingLeft=3;spacingRight=3;rotatable=0;labelPosition=right;points=[];portConstraint=eastwest;strokeColor=inherit;" vertex="1" parent="95">
                    <mxGeometry y="160" width="600" height="8" as="geometry"/>
                </mxCell>
                <mxCell id="98" value="&lt;p style=&quot;margin: 0cm 0cm 0px; line-height: 18.4px; font-family: Aptos, sans-serif; color: rgb(0, 0, 0);&quot; class=&quot;MsoNormal&quot;&gt;&lt;font style=&quot;font-size: 9px; line-height: 100%;&quot;&gt;&lt;span class=&quot;markedcontent&quot;&gt;&lt;span style=&quot;font-family: Arial, sans-serif; color: black; background: white;&quot;&gt;+ReliefService(Inquirer inquirer&lt;/span&gt;&lt;span style=&quot;transform-origin: 0% 0%; transform: scaleX(1.00019); cursor: text;&quot; role=&quot;presentation&quot;&gt;, DisasterV&lt;/span&gt;&lt;span style=&quot;transform-origin: 0% 0%; transform: scaleX(1.0002); cursor: text;&quot; role=&quot;presentation&quot;&gt;ictim missingPerson, String dateOfInquiry&lt;/span&gt;&lt;span style=&quot;transform-origin: 0% 0%; transform: scaleX(1.00022); cursor: text;&quot; role=&quot;presentation&quot;&gt;, String infoProvided, Location lastKnownLocation)&lt;/span&gt;&lt;/span&gt;&lt;span style=&quot;font-family: Arial, sans-serif; color: black; background: white;&quot;&gt;&lt;br style=&quot;transform-origin: 0% 0%; cursor: text;&quot; role=&quot;presentation&quot;&gt;&lt;span style=&quot;transform-origin: 0% 0%; cursor: text;&quot; id=&quot;page1R_mcid100&quot;&gt;&lt;/span&gt;&lt;span class=&quot;markedcontent&quot;&gt;&lt;span style=&quot;transform-origin: 0% 0%; transform: scaleX(1.00022); cursor: text;&quot; role=&quot;presentation&quot;&gt;&lt;span style=&quot;color: black; background-image: initial; background-position: initial; background-size: initial; background-repeat: initial; background-attachment: initial; background-origin: initial; background-clip: initial;&quot;&gt;+Inquirer getInquirer()&lt;/span&gt;&lt;/span&gt;&lt;/span&gt;&lt;/span&gt;&lt;span style=&quot;font-family: Arial, sans-serif; color: black; background: white;&quot;&gt;&lt;br style=&quot;transform-origin: 0% 0%; cursor: text;&quot; role=&quot;presentation&quot;&gt;&lt;/span&gt;&lt;/font&gt;&lt;/p&gt;&lt;p style=&quot;margin: 0cm 0cm 0px; line-height: 18.4px; font-family: Aptos, sans-serif; color: rgb(0, 0, 0);&quot; class=&quot;MsoNormal&quot;&gt;&lt;font style=&quot;font-size: 9px; line-height: 100%;&quot;&gt;&lt;span style=&quot;font-family: Arial, sans-serif; background: white; color: black;&quot;&gt;&lt;font color=&quot;rgba(0, 0, 0, 0)&quot;&gt;&lt;span style=&quot;transform-origin: 0% 0%; cursor: text; transform-origin: 0% 0%;&quot; id=&quot;page1R_mcid102&quot;&gt;&lt;/span&gt;&lt;/font&gt;&lt;span style=&quot;color: light-dark(black, rgb(237, 237, 237));&quot; class=&quot;markedcontent&quot;&gt;&lt;span style=&quot;transform-origin: 0% 0%; transform: scaleX(1.0002); cursor: text;&quot; role=&quot;presentation&quot;&gt;&lt;span style=&quot;color: black; background-image: initial; background-position: initial; background-size: initial; background-repeat: initial; background-attachment: initial; background-origin: initial; background-clip: initial;&quot;&gt;+DisasterV&lt;/span&gt;&lt;span style=&quot;transform-origin: 0% 0%; transform: scaleX(1.00021); cursor: text;&quot; role=&quot;presentation&quot;&gt;ictim getMissingPerson()&lt;/span&gt;&lt;/span&gt;&lt;/span&gt;&lt;/span&gt;&lt;span style=&quot;color: black; font-family: Arial, sans-serif; background: white;&quot;&gt;&lt;br style=&quot;transform-origin: 0% 0%; cursor: text;&quot; role=&quot;presentation&quot;&gt;&lt;span style=&quot;transform-origin: 0% 0%; cursor: text;&quot; id=&quot;page1R_mcid103&quot;&gt;&lt;/span&gt;&lt;span class=&quot;markedcontent&quot;&gt;&lt;span style=&quot;transform-origin: 0% 0%; transform: scaleX(1.00021); cursor: text;&quot; role=&quot;presentation&quot;&gt;&lt;span style=&quot;color: black; background-image: initial; background-position: initial; background-size: initial; background-repeat: initial; background-attachment: initial; background-origin: initial; background-clip: initial;&quot;&gt;+void setMissingPerson(DisasterV&lt;/span&gt;&lt;span style=&quot;transform-origin: 0% 0%; transform: scaleX(1.00021); cursor: text;&quot; role=&quot;presentation&quot;&gt;ictim missingPerson)&lt;/span&gt;&lt;/span&gt;&lt;/span&gt;&lt;/span&gt;&lt;span style=&quot;color: black; font-family: Arial, sans-serif; background: white;&quot;&gt;&lt;br style=&quot;transform-origin: 0% 0%; cursor: text;&quot; role=&quot;presentation&quot;&gt;&lt;span style=&quot;transform-origin: 0% 0%; cursor: text;&quot; id=&quot;page1R_mcid104&quot;&gt;&lt;/span&gt;&lt;span class=&quot;markedcontent&quot;&gt;&lt;span style=&quot;transform-origin: 0% 0%; transform: scaleX(1.0002); cursor: text;&quot; role=&quot;presentation&quot;&gt;&lt;span style=&quot;color: black; background-image: initial; background-position: initial; background-size: initial; background-repeat: initial; background-attachment: initial; background-origin: initial; background-clip: initial;&quot;&gt;+String getDateOfInquiry()&lt;/span&gt;&lt;/span&gt;&lt;/span&gt;&lt;/span&gt;&lt;span style=&quot;color: black; font-family: Arial, sans-serif; background: white;&quot;&gt;&lt;br style=&quot;transform-origin: 0% 0%; cursor: text;&quot; role=&quot;presentation&quot;&gt;&lt;span style=&quot;transform-origin: 0% 0%; cursor: text;&quot; id=&quot;page1R_mcid105&quot;&gt;&lt;/span&gt;&lt;span class=&quot;markedcontent&quot;&gt;&lt;span style=&quot;transform-origin: 0% 0%; transform: scaleX(1.0002); cursor: text;&quot; role=&quot;presentation&quot;&gt;&lt;span style=&quot;color: black; background-image: initial; background-position: initial; background-size: initial; background-repeat: initial; background-attachment: initial; background-origin: initial; background-clip: initial;&quot;&gt;+void setDateOfInquiry(String dateOfInquiry)&lt;/span&gt;&lt;/span&gt;&lt;/span&gt;&lt;/span&gt;&lt;span style=&quot;color: black; font-family: Arial, sans-serif; background: white;&quot;&gt;&lt;br style=&quot;transform-origin: 0% 0%; cursor: text;&quot; role=&quot;presentation&quot;&gt;&lt;span style=&quot;transform-origin: 0% 0%; cursor: text;&quot; id=&quot;page1R_mcid106&quot;&gt;&lt;/span&gt;&lt;span class=&quot;markedcontent&quot;&gt;&lt;span style=&quot;transform-origin: 0% 0%; transform: scaleX(1.00021); cursor: text;&quot; role=&quot;presentation&quot;&gt;&lt;span style=&quot;color: black; background-image: initial; background-position: initial; background-size: initial; background-repeat: initial; background-attachment: initial; background-origin: initial; background-clip: initial;&quot;&gt;+String getInfoProvided()&lt;/span&gt;&lt;/span&gt;&lt;/span&gt;&lt;/span&gt;&lt;span style=&quot;color: black; font-family: Arial, sans-serif; background: white;&quot;&gt;&lt;br style=&quot;transform-origin: 0% 0%; cursor: text;&quot; role=&quot;presentation&quot;&gt;&lt;span style=&quot;transform-origin: 0% 0%; cursor: text;&quot; id=&quot;page1R_mcid107&quot;&gt;&lt;/span&gt;&lt;span class=&quot;markedcontent&quot;&gt;&lt;span style=&quot;transform-origin: 0% 0%; transform: scaleX(1.00022); cursor: text;&quot; role=&quot;presentation&quot;&gt;&lt;span style=&quot;color: black; background-image: initial; background-position: initial; background-size: initial; background-repeat: initial; background-attachment: initial; background-origin: initial; background-clip: initial;&quot;&gt;+void setInfoProvided(String infoProvided)&lt;/span&gt;&lt;/span&gt;&lt;/span&gt;&lt;/span&gt;&lt;span style=&quot;color: black; font-family: Arial, sans-serif; background: white;&quot;&gt;&lt;br style=&quot;transform-origin: 0% 0%; cursor: text;&quot; role=&quot;presentation&quot;&gt;&lt;span style=&quot;transform-origin: 0% 0%; cursor: text;&quot; id=&quot;page1R_mcid108&quot;&gt;&lt;/span&gt;&lt;span class=&quot;markedcontent&quot;&gt;&lt;span style=&quot;transform-origin: 0% 0%; transform: scaleX(1.00022); cursor: text;&quot; role=&quot;presentation&quot;&gt;&lt;span style=&quot;color: black; background-image: initial; background-position: initial; background-size: initial; background-repeat: initial; background-attachment: initial; background-origin: initial; background-clip: initial;&quot;&gt;+Location getLastKnownLocation()&lt;/span&gt;&lt;/span&gt;&lt;/span&gt;&lt;/span&gt;&lt;span style=&quot;color: black; font-family: Arial, sans-serif; background: white;&quot;&gt;&lt;br style=&quot;transform-origin: 0% 0%; cursor: text;&quot; role=&quot;presentation&quot;&gt;&lt;span style=&quot;transform-origin: 0% 0%; cursor: text;&quot; id=&quot;page1R_mcid109&quot;&gt;&lt;/span&gt;&lt;span class=&quot;markedcontent&quot;&gt;&lt;span style=&quot;transform-origin: 0% 0%; transform: scaleX(1.00022); cursor: text;&quot; role=&quot;presentation&quot;&gt;&lt;span style=&quot;color: black; background-image: initial; background-position: initial; background-size: initial; background-repeat: initial; background-attachment: initial; background-origin: initial; background-clip: initial;&quot;&gt;+void setLastKnownLocation(Location lastKnownLocation)&lt;/span&gt;&lt;/span&gt;&lt;/span&gt;&lt;/span&gt;&lt;span style=&quot;color: black; font-family: Arial, sans-serif; background: white;&quot;&gt;&lt;br style=&quot;transform-origin: 0% 0%; cursor: text;&quot; role=&quot;presentation&quot;&gt;&lt;span style=&quot;transform-origin: 0% 0%; cursor: text;&quot; id=&quot;page1R_mcid110&quot;&gt;&lt;/span&gt;&lt;span class=&quot;markedcontent&quot;&gt;&lt;span style=&quot;transform-origin: 0% 0%; transform: scaleX(1.00023); cursor: text;&quot; role=&quot;presentation&quot;&gt;&lt;span style=&quot;color: black; background-image: initial; background-position: initial; background-size: initial; background-repeat: initial; background-attachment: initial; background-origin: initial; background-clip: initial;&quot;&gt;-boolean isV&lt;/span&gt;&lt;span style=&quot;transform-origin: 0% 0%; transform: scaleX(1.00021); cursor: text;&quot; role=&quot;presentation&quot;&gt;alidDateFormat(String date)&lt;/span&gt;&lt;/span&gt;&lt;/span&gt;&lt;/span&gt;&lt;span style=&quot;color: black; font-family: Arial, sans-serif; background: white;&quot;&gt;&lt;br style=&quot;transform-origin: 0% 0%; cursor: text;&quot; role=&quot;presentation&quot;&gt;&lt;span style=&quot;cursor: text; transform-origin: 0% 0%;&quot; id=&quot;page1R_mcid111&quot;&gt;&lt;/span&gt;&lt;span class=&quot;markedcontent&quot;&gt;&lt;span style=&quot;transform-origin: 0% 0%; transform: scaleX(1.00022); cursor: text;&quot; role=&quot;presentation&quot;&gt;&lt;span style=&quot;color: black; background-image: initial; background-position: initial; background-size: initial; background-repeat: initial; background-attachment: initial; background-origin: initial; background-clip: initial;&quot;&gt;+String getLogDetails()&lt;/span&gt;&lt;/span&gt;&lt;/span&gt;&lt;/span&gt;&lt;/font&gt;&lt;font color=&quot;rgba(0, 0, 0, 0)&quot;&gt;&lt;span style=&quot;font-size: 12pt; font-size: 12pt;&quot;&gt;&lt;/span&gt;&lt;/font&gt;&lt;/p&gt;&lt;p style=&quot;margin: 0cm 0cm 0px; line-height: 18.4px; font-family: Aptos, sans-serif; color: rgb(0, 0, 0);&quot; class=&quot;MsoNormal&quot;&gt;&lt;font style=&quot;font-size: 9px; line-height: 100%;&quot;&gt;&lt;span style=&quot;color: black; font-family: Arial, sans-serif; background: white;&quot;&gt;&lt;span class=&quot;markedcontent&quot;&gt;&lt;span style=&quot;transform-origin: 0% 0%; transform: scaleX(1.00022); cursor: text;&quot; role=&quot;presentation&quot;&gt;&lt;span style=&quot;color: black; background-image: initial; background-position: initial; background-size: initial; background-repeat: initial; background-attachment: initial; background-origin: initial; background-clip: initial;&quot;&gt;&lt;span style=&quot;color: rgb(63, 63, 63);&quot;&gt;+void saveData()&lt;/span&gt;&lt;br style=&quot;color: rgb(63, 63, 63); transform-origin: 0% 0%; cursor: text;&quot; role=&quot;presentation&quot;&gt;&lt;/span&gt;&lt;/span&gt;&lt;/span&gt;&lt;/span&gt;&lt;/font&gt;&lt;/p&gt;" style="text;strokeColor=none;fillColor=none;align=left;verticalAlign=top;spacingLeft=4;spacingRight=4;overflow=hidden;rotatable=0;points=[[0,0.5],[1,0.5]];portConstraint=eastwest;whiteSpace=wrap;html=1;" vertex="1" parent="95">
                    <mxGeometry y="168" width="600" height="272" as="geometry"/>
                </mxCell>
                <mxCell id="100" value="&amp;lt;&amp;lt;uses&amp;gt;&amp;gt;" style="text;html=1;align=center;verticalAlign=middle;whiteSpace=wrap;rounded=0;movable=1;resizable=1;rotatable=1;deletable=1;editable=1;locked=0;connectable=1;" vertex="1" parent="1">
                    <mxGeometry x="1810" y="550" width="60" height="30" as="geometry"/>
                </mxCell>
                <mxCell id="103" value="" style="html=1;labelBackgroundColor=#ffffff;startArrow=none;startFill=0;startSize=6;endArrow=classic;endFill=1;endSize=6;jettySize=auto;orthogonalLoop=1;strokeWidth=1;dashed=1;fontSize=14;exitX=0;exitY=0;exitDx=0;exitDy=0;entryX=0.75;entryY=0;entryDx=0;entryDy=0;" edge="1" parent="1" source="95" target="2">
                    <mxGeometry width="60" height="60" relative="1" as="geometry">
                        <mxPoint x="1370" y="110" as="sourcePoint"/>
                        <mxPoint x="620" y="270" as="targetPoint"/>
                        <Array as="points">
                            <mxPoint x="603" y="80"/>
                        </Array>
                    </mxGeometry>
                </mxCell>
                <mxCell id="104" value="&amp;lt;&amp;lt;uses&amp;gt;&amp;gt;" style="text;html=1;align=center;verticalAlign=middle;whiteSpace=wrap;rounded=0;movable=1;resizable=1;rotatable=1;deletable=1;editable=1;locked=0;connectable=1;" vertex="1" parent="1">
                    <mxGeometry x="1200" y="60" width="60" height="30" as="geometry"/>
                </mxCell>
                <mxCell id="106" value="0..*" style="text;html=1;align=center;verticalAlign=middle;whiteSpace=wrap;rounded=0;" vertex="1" parent="1">
                    <mxGeometry x="1940" y="724" width="20" height="20" as="geometry"/>
                </mxCell>
                <mxCell id="107" value="1" style="text;html=1;align=center;verticalAlign=middle;whiteSpace=wrap;rounded=0;" vertex="1" parent="1">
                    <mxGeometry x="1860" y="100" width="20" height="20" as="geometry"/>
                </mxCell>
                <mxCell id="108" value="1" style="text;html=1;align=center;verticalAlign=middle;whiteSpace=wrap;rounded=0;" vertex="1" parent="1">
                    <mxGeometry x="1860" y="180" width="20" height="20" as="geometry"/>
                </mxCell>
                <mxCell id="109" value="1" style="text;html=1;align=center;verticalAlign=middle;whiteSpace=wrap;rounded=0;" vertex="1" parent="1">
                    <mxGeometry x="1860" y="55" width="20" height="20" as="geometry"/>
                </mxCell>
                <mxCell id="110" value="0..*" style="text;html=1;align=center;verticalAlign=middle;whiteSpace=wrap;rounded=0;" vertex="1" parent="1">
                    <mxGeometry x="580" y="248" width="20" height="20" as="geometry"/>
                </mxCell>
                <mxCell id="112" value="" style="endArrow=none;startArrow=diamondThin;endFill=0;startFill=0;html=1;verticalAlign=bottom;labelBackgroundColor=none;strokeWidth=1;startSize=8;endSize=8;exitX=0.005;exitY=0.395;exitDx=0;exitDy=0;exitPerimeter=0;entryX=1.004;entryY=0.889;entryDx=0;entryDy=0;entryPerimeter=0;" edge="1" parent="1" source="89" target="3">
                    <mxGeometry width="160" relative="1" as="geometry">
                        <mxPoint x="890" y="460" as="sourcePoint"/>
                        <mxPoint x="1050" y="460" as="targetPoint"/>
                    </mxGeometry>
                </mxCell>
                <mxCell id="113" value="" style="endArrow=none;startArrow=diamondThin;endFill=0;startFill=1;html=1;verticalAlign=bottom;labelBackgroundColor=none;strokeWidth=1;startSize=8;endSize=8;entryX=0;entryY=0;entryDx=0;entryDy=0;exitX=0.994;exitY=0.127;exitDx=0;exitDy=0;exitPerimeter=0;" edge="1" parent="1" source="5" target="66">
                    <mxGeometry width="160" relative="1" as="geometry">
                        <mxPoint x="678" y="574" as="sourcePoint"/>
                        <mxPoint x="980" y="640" as="targetPoint"/>
                    </mxGeometry>
                </mxCell>
                <mxCell id="114" value="1" style="text;html=1;align=center;verticalAlign=middle;whiteSpace=wrap;rounded=0;" vertex="1" parent="1">
                    <mxGeometry x="680" y="540" width="20" height="20" as="geometry"/>
                </mxCell>
                <mxCell id="115" value="*" style="text;html=1;align=center;verticalAlign=middle;whiteSpace=wrap;rounded=0;" vertex="1" parent="1">
                    <mxGeometry x="1080" y="545" width="20" height="20" as="geometry"/>
                </mxCell>
                <mxCell id="116" value="1" style="text;html=1;align=center;verticalAlign=middle;whiteSpace=wrap;rounded=0;" vertex="1" parent="1">
                    <mxGeometry x="1410" y="440" width="20" height="20" as="geometry"/>
                </mxCell>
                <mxCell id="117" value="0..*" style="text;html=1;align=center;verticalAlign=middle;whiteSpace=wrap;rounded=0;" vertex="1" parent="1">
                    <mxGeometry x="680" y="440" width="20" height="20" as="geometry"/>
                </mxCell>
                <mxCell id="118" value="" style="html=1;labelBackgroundColor=#ffffff;startArrow=none;startFill=0;startSize=6;endArrow=classic;endFill=1;endSize=6;jettySize=auto;orthogonalLoop=1;strokeWidth=1;dashed=1;fontSize=14;entryX=1;entryY=0;entryDx=0;entryDy=0;exitX=-0.007;exitY=0.718;exitDx=0;exitDy=0;exitPerimeter=0;" edge="1" parent="1" source="96" target="86">
                    <mxGeometry width="60" height="60" relative="1" as="geometry">
                        <mxPoint x="1820" y="230" as="sourcePoint"/>
                        <mxPoint x="1670" y="140" as="targetPoint"/>
                    </mxGeometry>
                </mxCell>
                <mxCell id="119" value="IllegalArgumentException" style="swimlane;fontStyle=1;align=center;verticalAlign=top;childLayout=stackLayout;horizontal=1;startSize=26;horizontalStack=0;resizeParent=1;resizeParentMax=0;resizeLast=0;collapsible=1;marginBottom=0;whiteSpace=wrap;html=1;" vertex="1" parent="1">
                    <mxGeometry x="2610" y="380" width="290" height="34" as="geometry"/>
                </mxCell>
                <mxCell id="120" value="" style="line;strokeWidth=1;fillColor=none;align=left;verticalAlign=middle;spacingTop=-1;spacingLeft=3;spacingRight=3;rotatable=0;labelPosition=right;points=[];portConstraint=eastwest;strokeColor=inherit;" vertex="1" parent="119">
                    <mxGeometry y="26" width="290" height="8" as="geometry"/>
                </mxCell>
                <mxCell id="121" value="" style="html=1;labelBackgroundColor=#ffffff;startArrow=none;startFill=0;startSize=6;endArrow=classic;endFill=1;endSize=6;jettySize=auto;orthogonalLoop=1;strokeWidth=1;dashed=1;fontSize=14;exitX=1;exitY=0.5;exitDx=0;exitDy=0;" edge="1" parent="1" source="98">
                    <mxGeometry width="60" height="60" relative="1" as="geometry">
                        <mxPoint x="2570" y="390" as="sourcePoint"/>
                        <mxPoint x="2610" y="384" as="targetPoint"/>
                    </mxGeometry>
                </mxCell>
                <mxCell id="122" value="&amp;lt;&amp;lt;uses&amp;gt;&amp;gt;" style="text;html=1;align=center;verticalAlign=middle;whiteSpace=wrap;rounded=0;movable=1;resizable=1;rotatable=1;deletable=1;editable=1;locked=0;connectable=1;" vertex="1" parent="1">
                    <mxGeometry x="1760" y="200" width="60" height="30" as="geometry"/>
                </mxCell>
                <mxCell id="125" value="*" style="text;html=1;align=center;verticalAlign=middle;whiteSpace=wrap;rounded=0;" vertex="1" parent="1">
                    <mxGeometry x="1710" y="195" width="20" height="20" as="geometry"/>
                </mxCell>
                <mxCell id="127" value="&amp;lt;&amp;lt;throws&amp;gt;&amp;gt;" style="text;html=1;align=center;verticalAlign=middle;whiteSpace=wrap;rounded=0;movable=1;resizable=1;rotatable=1;deletable=1;editable=1;locked=0;connectable=1;" vertex="1" parent="1">
                    <mxGeometry x="2510" y="360" width="60" height="30" as="geometry"/>
                </mxCell>
                <mxCell id="129" value="" style="html=1;labelBackgroundColor=#ffffff;startArrow=none;startFill=0;startSize=6;endArrow=classic;endFill=1;endSize=6;jettySize=auto;orthogonalLoop=1;strokeWidth=1;dashed=1;fontSize=14;entryX=0;entryY=0;entryDx=0;entryDy=0;exitX=0.617;exitY=0.003;exitDx=0;exitDy=0;exitPerimeter=0;" edge="1" parent="1" source="30" target="86">
                    <mxGeometry width="60" height="60" relative="1" as="geometry">
                        <mxPoint x="20" y="260" as="sourcePoint"/>
                        <mxPoint x="240" y="110" as="targetPoint"/>
                        <Array as="points">
                            <mxPoint x="20" y="210"/>
                        </Array>
                    </mxGeometry>
                </mxCell>
                <mxCell id="130" value="1" style="text;html=1;align=center;verticalAlign=middle;whiteSpace=wrap;rounded=0;" vertex="1" parent="1">
                    <mxGeometry x="20" y="248" width="20" height="20" as="geometry"/>
                </mxCell>
                <mxCell id="131" value="*" style="text;html=1;align=center;verticalAlign=middle;whiteSpace=wrap;rounded=0;" vertex="1" parent="1">
                    <mxGeometry x="1400" y="195" width="20" height="20" as="geometry"/>
                </mxCell>
                <mxCell id="132" value="&amp;lt;&amp;lt;uses&amp;gt;&amp;gt;" style="text;html=1;align=center;verticalAlign=middle;whiteSpace=wrap;rounded=0;movable=1;resizable=1;rotatable=1;deletable=1;editable=1;locked=0;connectable=1;" vertex="1" parent="1">
                    <mxGeometry x="730" y="195" width="60" height="30" as="geometry"/>
                </mxCell>
                <mxCell id="133" value="" style="html=1;labelBackgroundColor=#ffffff;startArrow=none;startFill=0;startSize=6;endArrow=classic;endFill=1;endSize=6;jettySize=auto;orthogonalLoop=1;strokeWidth=1;dashed=1;fontSize=14;exitX=0.002;exitY=0.828;exitDx=0;exitDy=0;exitPerimeter=0;entryX=1;entryY=0;entryDx=0;entryDy=0;movable=1;resizable=1;rotatable=1;deletable=1;editable=1;locked=0;connectable=1;" edge="1" parent="1" source="87" target="66">
                    <mxGeometry width="60" height="60" relative="1" as="geometry">
                        <mxPoint x="1300" y="580" as="sourcePoint"/>
                        <mxPoint x="1310" y="565" as="targetPoint"/>
                        <Array as="points">
                            <mxPoint x="1360" y="320"/>
                            <mxPoint x="1360" y="560"/>
                        </Array>
                    </mxGeometry>
                </mxCell>
                <mxCell id="134" value="&amp;lt;&amp;lt;uses&amp;gt;&amp;gt;" style="text;html=1;align=center;verticalAlign=middle;whiteSpace=wrap;rounded=0;movable=1;resizable=1;rotatable=1;deletable=1;editable=1;locked=0;connectable=1;" vertex="1" parent="1">
                    <mxGeometry x="1330" y="480" width="60" height="30" as="geometry"/>
                </mxCell>
                <mxCell id="135" value="1" style="text;html=1;align=center;verticalAlign=middle;whiteSpace=wrap;rounded=0;" vertex="1" parent="1">
                    <mxGeometry x="1410" y="302" width="20" height="20" as="geometry"/>
                </mxCell>
                <mxCell id="136" value="0..*" style="text;html=1;align=center;verticalAlign=middle;whiteSpace=wrap;rounded=0;" vertex="1" parent="1">
                    <mxGeometry x="1270" y="565" width="20" height="20" as="geometry"/>
                </mxCell>
                <mxCell id="137" value="" style="html=1;labelBackgroundColor=#ffffff;startArrow=none;startFill=0;startSize=6;endArrow=classic;endFill=1;endSize=6;jettySize=auto;orthogonalLoop=1;strokeWidth=1;dashed=1;fontSize=14;entryX=1;entryY=0;entryDx=0;entryDy=0;exitX=-0.008;exitY=0.063;exitDx=0;exitDy=0;exitPerimeter=0;" edge="1" parent="1" source="5" target="53">
                    <mxGeometry width="60" height="60" relative="1" as="geometry">
                        <mxPoint x="280" y="520" as="sourcePoint"/>
                        <mxPoint x="160" y="750" as="targetPoint"/>
                        <Array as="points">
                            <mxPoint x="280" y="523"/>
                            <mxPoint x="280" y="720"/>
                        </Array>
                    </mxGeometry>
                </mxCell>
                <mxCell id="138" value="" style="html=1;labelBackgroundColor=#ffffff;startArrow=none;startFill=0;startSize=6;endArrow=classic;endFill=1;endSize=6;jettySize=auto;orthogonalLoop=1;strokeWidth=1;dashed=1;fontSize=14;exitX=-0.012;exitY=0.269;exitDx=0;exitDy=0;exitPerimeter=0;entryX=1;entryY=0.25;entryDx=0;entryDy=0;" edge="1" parent="1" source="5" target="53">
                    <mxGeometry width="60" height="60" relative="1" as="geometry">
                        <mxPoint x="260" y="910" as="sourcePoint"/>
                        <mxPoint x="220" y="759" as="targetPoint"/>
                        <Array as="points">
                            <mxPoint x="320" y="639"/>
                            <mxPoint x="320" y="726"/>
                        </Array>
                    </mxGeometry>
                </mxCell>
                <mxCell id="139" value="" style="html=1;labelBackgroundColor=#ffffff;startArrow=none;startFill=0;startSize=6;endArrow=classic;endFill=1;endSize=6;jettySize=auto;orthogonalLoop=1;strokeWidth=1;dashed=1;fontSize=14;exitX=0;exitY=0.822;exitDx=0;exitDy=0;exitPerimeter=0;entryX=1;entryY=1;entryDx=0;entryDy=0;" edge="1" parent="1" source="5" target="53">
                    <mxGeometry width="60" height="60" relative="1" as="geometry">
                        <mxPoint x="100" y="900" as="sourcePoint"/>
                        <mxPoint x="160" y="840" as="targetPoint"/>
                        <Array as="points">
                            <mxPoint x="120" y="940"/>
                        </Array>
                    </mxGeometry>
                </mxCell>
                <mxCell id="140" value="&amp;lt;&amp;lt;throws&amp;gt;&amp;gt;" style="text;html=1;align=center;verticalAlign=middle;whiteSpace=wrap;rounded=0;movable=1;resizable=1;rotatable=1;deletable=1;editable=1;locked=0;connectable=1;" vertex="1" parent="1">
                    <mxGeometry x="250" y="560" width="60" height="30" as="geometry"/>
                </mxCell>
                <mxCell id="141" value="&amp;lt;&amp;lt;throws&amp;gt;&amp;gt;" style="text;html=1;align=center;verticalAlign=middle;whiteSpace=wrap;rounded=0;movable=1;resizable=1;rotatable=1;deletable=1;editable=1;locked=0;connectable=1;" vertex="1" parent="1">
                    <mxGeometry x="290" y="670" width="60" height="30" as="geometry"/>
                </mxCell>
                <mxCell id="142" value="&amp;lt;&amp;lt;throws&amp;gt;&amp;gt;" style="text;html=1;align=center;verticalAlign=middle;whiteSpace=wrap;rounded=0;movable=1;resizable=1;rotatable=1;deletable=1;editable=1;locked=0;connectable=1;" vertex="1" parent="1">
                    <mxGeometry x="90" y="860" width="60" height="30" as="geometry"/>
                </mxCell>
                <mxCell id="144" value="" style="html=1;labelBackgroundColor=#ffffff;startArrow=none;startFill=0;startSize=6;endArrow=classic;endFill=1;endSize=6;jettySize=auto;orthogonalLoop=1;strokeWidth=1;dashed=1;fontSize=14;entryX=0;entryY=0.5;entryDx=0;entryDy=0;" edge="1" parent="1" target="181">
                    <mxGeometry width="60" height="60" relative="1" as="geometry">
                        <mxPoint x="400" y="1042" as="sourcePoint"/>
                        <mxPoint x="588.6799999999998" y="1279.1799999999998" as="targetPoint"/>
                        <Array as="points">
                            <mxPoint x="400" y="1280"/>
                        </Array>
                    </mxGeometry>
                </mxCell>
                <mxCell id="145" value="" style="html=1;labelBackgroundColor=#ffffff;startArrow=none;startFill=0;startSize=6;endArrow=classic;endFill=1;endSize=6;jettySize=auto;orthogonalLoop=1;strokeWidth=1;dashed=1;fontSize=14;exitX=0.974;exitY=1.01;exitDx=0;exitDy=0;exitPerimeter=0;entryX=1;entryY=0;entryDx=0;entryDy=0;" edge="1" parent="1" source="89" target="180">
                    <mxGeometry width="60" height="60" relative="1" as="geometry">
                        <mxPoint x="1730" y="1150" as="sourcePoint"/>
                        <mxPoint x="750" y="1240" as="targetPoint"/>
                        <Array as="points">
                            <mxPoint x="1710" y="1240"/>
                        </Array>
                    </mxGeometry>
                </mxCell>
                <mxCell id="146" value="" style="html=1;labelBackgroundColor=#ffffff;startArrow=none;startFill=0;startSize=6;endArrow=classic;endFill=1;endSize=6;jettySize=auto;orthogonalLoop=1;strokeWidth=1;dashed=1;fontSize=14;exitX=0.958;exitY=1.001;exitDx=0;exitDy=0;exitPerimeter=0;entryX=1.016;entryY=-0.008;entryDx=0;entryDy=0;entryPerimeter=0;" edge="1" parent="1" source="98" target="183">
                    <mxGeometry width="60" height="60" relative="1" as="geometry">
                        <mxPoint x="2480" y="680" as="sourcePoint"/>
                        <mxPoint x="750" y="1300" as="targetPoint"/>
                        <Array as="points">
                            <mxPoint x="2460" y="1300"/>
                        </Array>
                    </mxGeometry>
                </mxCell>
                <mxCell id="147" value="&amp;lt;&amp;lt;uses&amp;gt;&amp;gt;" style="text;html=1;align=center;verticalAlign=middle;whiteSpace=wrap;rounded=0;movable=1;resizable=1;rotatable=1;deletable=1;editable=1;locked=0;connectable=1;" vertex="1" parent="1">
                    <mxGeometry x="1790" y="1280" width="60" height="30" as="geometry"/>
                </mxCell>
                <mxCell id="148" value="&amp;lt;&amp;lt;uses&amp;gt;&amp;gt;" style="text;html=1;align=center;verticalAlign=middle;whiteSpace=wrap;rounded=0;movable=1;resizable=1;rotatable=1;deletable=1;editable=1;locked=0;connectable=1;" vertex="1" parent="1">
                    <mxGeometry x="1270" y="1226" width="60" height="30" as="geometry"/>
                </mxCell>
                <mxCell id="149" value="&amp;lt;&amp;lt;uses&amp;gt;&amp;gt;" style="text;html=1;align=center;verticalAlign=middle;whiteSpace=wrap;rounded=0;movable=1;resizable=1;rotatable=1;deletable=1;editable=1;locked=0;connectable=1;" vertex="1" parent="1">
                    <mxGeometry x="370" y="1140" width="60" height="30" as="geometry"/>
                </mxCell>
                <mxCell id="166" value="Extends" style="endArrow=block;endSize=16;endFill=0;html=1;entryX=0.495;entryY=1.013;entryDx=0;entryDy=0;entryPerimeter=0;" edge="1" parent="1" target="69">
                    <mxGeometry width="160" relative="1" as="geometry">
                        <mxPoint x="1180" y="830" as="sourcePoint"/>
                        <mxPoint x="1030" y="790" as="targetPoint"/>
                    </mxGeometry>
                </mxCell>
                <mxCell id="168" value="" style="endArrow=none;html=1;" edge="1" parent="1">
                    <mxGeometry width="50" height="50" relative="1" as="geometry">
                        <mxPoint x="840" y="830" as="sourcePoint"/>
                        <mxPoint x="1520.5882352941176" y="830" as="targetPoint"/>
                    </mxGeometry>
                </mxCell>
                <mxCell id="170" value="" style="endArrow=none;html=1;exitX=0.75;exitY=0;exitDx=0;exitDy=0;" edge="1" parent="1" source="82">
                    <mxGeometry width="50" height="50" relative="1" as="geometry">
                        <mxPoint x="810" y="880" as="sourcePoint"/>
                        <mxPoint x="840" y="830" as="targetPoint"/>
                    </mxGeometry>
                </mxCell>
                <mxCell id="171" value="" style="endArrow=none;html=1;exitX=0.5;exitY=0;exitDx=0;exitDy=0;" edge="1" parent="1" source="78">
                    <mxGeometry width="50" height="50" relative="1" as="geometry">
                        <mxPoint x="1020" y="890" as="sourcePoint"/>
                        <mxPoint x="1040" y="830" as="targetPoint"/>
                    </mxGeometry>
                </mxCell>
                <mxCell id="174" value="" style="endArrow=none;html=1;exitX=0.5;exitY=0;exitDx=0;exitDy=0;" edge="1" parent="1" source="74">
                    <mxGeometry width="50" height="50" relative="1" as="geometry">
                        <mxPoint x="1250" y="910" as="sourcePoint"/>
                        <mxPoint x="1280" y="830" as="targetPoint"/>
                    </mxGeometry>
                </mxCell>
                <mxCell id="175" value="" style="endArrow=none;html=1;" edge="1" parent="1">
                    <mxGeometry width="50" height="50" relative="1" as="geometry">
                        <mxPoint x="1520" y="900" as="sourcePoint"/>
                        <mxPoint x="1520" y="830" as="targetPoint"/>
                    </mxGeometry>
                </mxCell>
                <mxCell id="176" value="&lt;i&gt;&amp;lt;&amp;lt;interface&amp;gt;&amp;gt;&lt;/i&gt;&lt;div&gt;ReliefService&lt;/div&gt;" style="swimlane;fontStyle=1;align=center;verticalAlign=top;childLayout=stackLayout;horizontal=1;startSize=50;horizontalStack=0;resizeParent=1;resizeParentMax=0;resizeLast=0;collapsible=1;marginBottom=0;whiteSpace=wrap;html=1;" vertex="1" parent="1">
                    <mxGeometry x="1260" y="-270" width="410" height="190" as="geometry"/>
                </mxCell>
                <mxCell id="177" value="+ field: type" style="text;strokeColor=none;fillColor=none;align=left;verticalAlign=top;spacingLeft=4;spacingRight=4;overflow=hidden;rotatable=0;points=[[0,0.5],[1,0.5]];portConstraint=eastwest;whiteSpace=wrap;html=1;" vertex="1" parent="176">
                    <mxGeometry y="50" width="410" height="20" as="geometry"/>
                </mxCell>
                <mxCell id="178" value="" style="line;strokeWidth=1;fillColor=none;align=left;verticalAlign=middle;spacingTop=-1;spacingLeft=3;spacingRight=3;rotatable=0;labelPosition=right;points=[];portConstraint=eastwest;strokeColor=inherit;" vertex="1" parent="176">
                    <mxGeometry y="70" width="410" height="8" as="geometry"/>
                </mxCell>
                <mxCell id="179" value="&lt;font style=&quot;font-size: 9px;&quot;&gt;+ void addDisasterVictim(&lt;span style=&quot;color: rgb(63, 63, 63); font-family: Arial, sans-serif; background-color: rgb(255, 255, 255); transform-origin: 0% 0%; transform: scaleX(1.00017); cursor: text;&quot; role=&quot;presentation&quot;&gt;String firstName, String ENTR&lt;/span&gt;&lt;span style=&quot;color: rgb(63, 63, 63); font-family: Arial, sans-serif; background-color: rgb(255, 255, 255); transform-origin: 0% 0%; transform: scaleX(1.00021); cursor: text;&quot; role=&quot;presentation&quot;&gt;Y_DA&lt;/span&gt;&lt;span style=&quot;color: rgb(63, 63, 63); font-family: Arial, sans-serif; background-color: rgb(255, 255, 255); transform-origin: 0% 0%; transform: scaleX(1.00018); cursor: text;&quot; role=&quot;presentation&quot;&gt;TE, String dateOfBirth)&lt;/span&gt;&lt;/font&gt;&lt;div&gt;&lt;font style=&quot;font-size: 9px;&quot;&gt;&lt;span style=&quot;color: rgb(63, 63, 63); font-family: Arial, sans-serif; background-color: rgb(255, 255, 255); transform-origin: 0% 0%; transform: scaleX(1.00018); cursor: text;&quot; role=&quot;presentation&quot;&gt;+ String getDisasterVictimDetails(DisasterVictim)&lt;/span&gt;&lt;/font&gt;&lt;/div&gt;&lt;div&gt;&lt;font style=&quot;font-size: 9px;&quot;&gt;&lt;span style=&quot;color: rgb(63, 63, 63); font-family: Arial, sans-serif; background-color: rgb(255, 255, 255); transform-origin: 0% 0%; transform: scaleX(1.00018); cursor: text;&quot; role=&quot;presentation&quot;&gt;+ String viewLocationDetails(Location)&lt;/span&gt;&lt;/font&gt;&lt;/div&gt;&lt;div&gt;&lt;font style=&quot;font-size: 9px;&quot;&gt;&lt;span style=&quot;color: rgb(63, 63, 63); font-family: Arial, sans-serif; background-color: rgb(255, 255, 255); transform-origin: 0% 0%; transform: scaleX(1.00018); cursor: text;&quot; role=&quot;presentation&quot;&gt;+void setLocationSupplies(Location)&lt;/span&gt;&lt;/font&gt;&lt;/div&gt;&lt;div&gt;&lt;font style=&quot;font-size: 9px;&quot;&gt;&lt;span style=&quot;color: rgb(63, 63, 63); font-family: Arial, sans-serif; background-color: rgb(255, 255, 255); transform-origin: 0% 0%; transform: scaleX(1.00018); cursor: text;&quot; role=&quot;presentation&quot;&gt;+Inquiry logInquiry(Inquiry)&lt;/span&gt;&lt;/font&gt;&lt;/div&gt;&lt;div&gt;&lt;font style=&quot;font-size: 9px;&quot;&gt;&lt;span style=&quot;color: rgb(63, 63, 63); font-family: Arial, sans-serif; background-color: rgb(255, 255, 255); transform-origin: 0% 0%; transform: scaleX(1.00018); cursor: text;&quot; role=&quot;presentation&quot;&gt;+String viewInquiries()&lt;/span&gt;&lt;/font&gt;&lt;/div&gt;&lt;div&gt;&lt;font style=&quot;font-size: 9px;&quot;&gt;&lt;span style=&quot;color: rgb(63, 63, 63); font-family: Arial, sans-serif; background-color: rgb(255, 255, 255); transform-origin: 0% 0%; transform: scaleX(1.00018); cursor: text;&quot; role=&quot;presentation&quot;&gt;&lt;br&gt;&lt;/span&gt;&lt;/font&gt;&lt;/div&gt;" style="text;strokeColor=none;fillColor=none;align=left;verticalAlign=top;spacingLeft=4;spacingRight=4;overflow=hidden;rotatable=0;points=[[0,0.5],[1,0.5]];portConstraint=eastwest;whiteSpace=wrap;html=1;" vertex="1" parent="176">
                    <mxGeometry y="78" width="410" height="112" as="geometry"/>
                </mxCell>
                <mxCell id="180" value="Database Manager" style="swimlane;fontStyle=1;align=center;verticalAlign=top;childLayout=stackLayout;horizontal=1;startSize=26;horizontalStack=0;resizeParent=1;resizeParentMax=0;resizeLast=0;collapsible=1;marginBottom=0;whiteSpace=wrap;html=1;" vertex="1" parent="1">
                    <mxGeometry x="590" y="1241" width="160" height="110" as="geometry"/>
                </mxCell>
                <mxCell id="181" value="+ String connection" style="text;strokeColor=none;fillColor=none;align=left;verticalAlign=top;spacingLeft=4;spacingRight=4;overflow=hidden;rotatable=0;points=[[0,0.5],[1,0.5]];portConstraint=eastwest;whiteSpace=wrap;html=1;" vertex="1" parent="180">
                    <mxGeometry y="26" width="160" height="26" as="geometry"/>
                </mxCell>
                <mxCell id="182" value="" style="line;strokeWidth=1;fillColor=none;align=left;verticalAlign=middle;spacingTop=-1;spacingLeft=3;spacingRight=3;rotatable=0;labelPosition=right;points=[];portConstraint=eastwest;strokeColor=inherit;" vertex="1" parent="180">
                    <mxGeometry y="52" width="160" height="8" as="geometry"/>
                </mxCell>
                <mxCell id="183" value="+ &amp;lt;ArrayList&amp;gt; loadData&lt;div&gt;+ void saveData&lt;/div&gt;" style="text;strokeColor=none;fillColor=none;align=left;verticalAlign=top;spacingLeft=4;spacingRight=4;overflow=hidden;rotatable=0;points=[[0,0.5],[1,0.5]];portConstraint=eastwest;whiteSpace=wrap;html=1;" vertex="1" parent="180">
                    <mxGeometry y="60" width="160" height="50" as="geometry"/>
                </mxCell>
                <mxCell id="184" value="&amp;lt;&amp;lt;Database&amp;gt;&amp;gt;&lt;div&gt;project.sql&lt;/div&gt;" style="rounded=0;whiteSpace=wrap;html=1;" vertex="1" parent="1">
                    <mxGeometry x="610" y="1430" width="120" height="60" as="geometry"/>
                </mxCell>
                <mxCell id="185" value="" style="html=1;labelBackgroundColor=#ffffff;startArrow=none;startFill=0;startSize=6;endArrow=classic;endFill=1;endSize=6;jettySize=auto;orthogonalLoop=1;strokeWidth=1;dashed=1;fontSize=14;exitX=0.504;exitY=0.952;exitDx=0;exitDy=0;exitPerimeter=0;entryX=0.5;entryY=0;entryDx=0;entryDy=0;" edge="1" parent="1" source="183" target="184">
                    <mxGeometry width="60" height="60" relative="1" as="geometry">
                        <mxPoint x="650" y="1420" as="sourcePoint"/>
                        <mxPoint x="710" y="1360" as="targetPoint"/>
                    </mxGeometry>
                </mxCell>
                <mxCell id="186" value="&amp;lt;&amp;lt;enumeration&amp;gt;&amp;gt;&lt;div&gt;Gender&lt;/div&gt;" style="swimlane;fontStyle=1;align=center;verticalAlign=top;childLayout=stackLayout;horizontal=1;startSize=40;horizontalStack=0;resizeParent=1;resizeParentMax=0;resizeLast=0;collapsible=1;marginBottom=0;whiteSpace=wrap;html=1;" vertex="1" parent="1">
                    <mxGeometry x="845" y="610" width="160" height="120" as="geometry"/>
                </mxCell>
                <mxCell id="189" value="MAN&lt;div&gt;WOMAN&lt;/div&gt;&lt;div&gt;NON-BINARY&lt;/div&gt;" style="text;strokeColor=none;fillColor=none;align=left;verticalAlign=top;spacingLeft=4;spacingRight=4;overflow=hidden;rotatable=0;points=[[0,0.5],[1,0.5]];portConstraint=eastwest;whiteSpace=wrap;html=1;" vertex="1" parent="186">
                    <mxGeometry y="40" width="160" height="80" as="geometry"/>
                </mxCell>
                <mxCell id="191" value="" style="shape=orEllipse;perimeter=ellipsePerimeter;whiteSpace=wrap;html=1;backgroundOutline=1;" vertex="1" parent="1">
                    <mxGeometry x="680" y="912" width="10" height="10" as="geometry"/>
                </mxCell>
                <mxCell id="193" value="" style="endArrow=none;html=1;exitX=0;exitY=0.25;exitDx=0;exitDy=0;entryX=1;entryY=0;entryDx=0;entryDy=0;" edge="1" parent="1" source="186" target="191">
                    <mxGeometry width="50" height="50" relative="1" as="geometry">
                        <mxPoint x="790" y="660" as="sourcePoint"/>
                        <mxPoint x="700" y="890" as="targetPoint"/>
                    </mxGeometry>
                </mxCell>
                <mxCell id="194" value="" style="html=1;labelBackgroundColor=#ffffff;startArrow=none;startFill=0;startSize=6;endArrow=classic;endFill=1;endSize=6;jettySize=auto;orthogonalLoop=1;strokeWidth=1;dashed=1;fontSize=14;exitX=0.5;exitY=0;exitDx=0;exitDy=0;entryX=0;entryY=0.5;entryDx=0;entryDy=0;" edge="1" parent="1" source="2" target="179">
                    <mxGeometry width="60" height="60" relative="1" as="geometry">
                        <mxPoint x="800" y="10" as="sourcePoint"/>
                        <mxPoint x="520" y="-100" as="targetPoint"/>
                        <Array as="points">
                            <mxPoint x="525" y="-136"/>
                        </Array>
                    </mxGeometry>
                </mxCell>
                <mxCell id="195" value="" style="html=1;labelBackgroundColor=#ffffff;startArrow=none;startFill=0;startSize=6;endArrow=classic;endFill=1;endSize=6;jettySize=auto;orthogonalLoop=1;strokeWidth=1;dashed=1;fontSize=14;entryX=0.634;entryY=1.033;entryDx=0;entryDy=0;entryPerimeter=0;exitX=0.329;exitY=0.003;exitDx=0;exitDy=0;exitPerimeter=0;" edge="1" parent="1" source="86" target="179">
                    <mxGeometry width="60" height="60" relative="1" as="geometry">
                        <mxPoint x="1520" y="210" as="sourcePoint"/>
                        <mxPoint x="1580" y="110" as="targetPoint"/>
                    </mxGeometry>
                </mxCell>
                <mxCell id="196" value="" style="html=1;labelBackgroundColor=#ffffff;startArrow=none;startFill=0;startSize=6;endArrow=classic;endFill=1;endSize=6;jettySize=auto;orthogonalLoop=1;strokeWidth=1;dashed=1;fontSize=14;entryX=1;entryY=0.5;entryDx=0;entryDy=0;exitX=0.25;exitY=0;exitDx=0;exitDy=0;" edge="1" parent="1" source="95" target="179">
                    <mxGeometry width="60" height="60" relative="1" as="geometry">
                        <mxPoint x="2080" y="-140" as="sourcePoint"/>
                        <mxPoint x="1970" y="-130" as="targetPoint"/>
                        <Array as="points">
                            <mxPoint x="2030" y="-140"/>
                        </Array>
                    </mxGeometry>
                </mxCell>
            </root>
        </mxGraphModel>
    </diagram>
</mxfile>